<?xml version="1.0" encoding="utf-8"?>
<!-- Generator: Adobe Illustrator 18.1.1, SVG Export Plug-In . SVG Version: 6.00 Build 0)  -->
<svg version="1.1" id="Layer_1" xmlns="http://www.w3.org/2000/svg" xmlns:xlink="http://www.w3.org/1999/xlink" x="0px" y="0px"
	 viewBox="0 0 2650 2000" enable-background="new 0 0 2650 2000" xml:space="preserve">
<rect fill="#FFFFFF" width="2650" height="2000"/>
<g>
	<g>
		<g>
			<g>
				<path fill="#FEEFDC" d="M674.1,1786l-299.9,2.5c0,0-122.9-166.5-96.8-721.3c26.2-554.8,299-842.4,615.7-860.8
					c386.4-22.4,421.1,112.3,845,157.7c944.4,101.1,872.8,1107.6,537.3,1421.8H674.1z"/>
			</g>
		</g>
	</g>
	<g>
		<g>
			<g>
				<g>
					<g>
						<path fill="#3F9896" d="M488.7,776.5c0,0-57.9-95.7-196.7-70.9C291.9,705.7,385.4,844.3,488.7,776.5z"/>
					</g>
				</g>
			</g>
		</g>
		<g>
			<g>
				<g>
					<g>
						<path fill="#7FC6A6" d="M579,801.8c0,0-17.2-191.8-250.9-258.3C328.2,543.4,368.1,828.6,579,801.8z"/>
					</g>
				</g>
			</g>
		</g>
	</g>
	<g>
		<g>
			<g>
				<g>
					<g>
						<g>
							<path fill="#3F9896" d="M1780,669.3l-2.6-0.3l0.2-1.3c0.6-4.8,1.4-9.7,2.3-14.4l0.2-1.3l2.6,0.5l-0.2,1.3
								c-0.9,4.7-1.6,9.6-2.3,14.3L1780,669.3z M1785.2,640.9l-2.6-0.6l0.3-1.3c1.1-4.8,2.4-9.5,3.8-14.1l0.4-1.3l2.5,0.8l-0.4,1.3
								c-1.4,4.5-2.7,9.2-3.8,14L1785.2,640.9z M1962.7,625.9C1962.7,625.9,1962.7,625.9,1962.7,625.9c-2.2,0-4.4-0.2-6.6-0.6
								l-1.3-0.2l0.5-2.6l1.3,0.2c2.1,0.4,4.1,0.6,6.1,0.6c0,0,0,0,0,0c2.6,0,5.2-0.3,7.7-1l1.3-0.3l0.7,2.5l-1.3,0.3
								C1968.4,625.6,1965.6,625.9,1962.7,625.9z M1943.2,620.8l-1.1-0.7c-4.1-2.8-7-6.9-8.8-12.3l-0.4-1.3l2.5-0.8l0.4,1.3
								c1.5,4.8,4.1,8.5,7.7,10.9l1.1,0.7L1943.2,620.8z M1983.3,618.6l-1.7-2l1-0.9c3.4-2.9,6.3-6.6,8.8-10.9l0.7-1.1l2.3,1.3
								l-0.7,1.1c-2.6,4.6-5.8,8.5-9.4,11.6L1983.3,618.6z M1793.4,613.2l-2.5-0.9l0.5-1.2c1.7-4.6,3.6-9.2,5.6-13.5l0.5-1.2
								l2.4,1.1l-0.5,1.2c-1.9,4.3-3.8,8.8-5.5,13.4L1793.4,613.2z M1934.3,594.3l-2.6-0.2l0.1-1.3c0.3-4.6,1.2-9.5,2.6-14.6
								l0.4-1.3l2.5,0.7l-0.4,1.3c-1.4,4.9-2.3,9.6-2.5,14L1934.3,594.3z M1999,593.7l-2.5-0.7l0.4-1.3c1.3-4.5,2-9.2,2.3-14
								l0.1-1.3l2.6,0.2l-0.1,1.3c-0.3,5-1.1,9.9-2.4,14.6L1999,593.7z M1805.2,586.8l-2.3-1.3l0.6-1.2c2.4-4.3,5-8.5,7.6-12.5
								l0.7-1.1l2.2,1.5l-0.7,1.1c-2.6,3.9-5.1,8-7.5,12.3L1805.2,586.8z M1941.5,566.9l-2.4-1.1l0.6-1.2c2.1-4.3,4.5-8.6,7.3-12.8
								l0.7-1.1l2.2,1.4l-0.7,1.1c-2.7,4.1-5.1,8.3-7.1,12.5L1941.5,566.9z M1998.7,564.8l-0.2-1.3c-0.3-1.9-0.6-3.7-1.1-5.5
								c-0.7-2.8-1.6-5.6-2.7-8.2l-0.5-1.2l2.4-1l0.5,1.2c1.2,2.7,2.1,5.6,2.8,8.6c0.4,1.9,0.8,3.8,1.1,5.7l0.2,1.3L1998.7,564.8z
								 M1821.1,562.8l-2-1.7l0.8-1c3.1-3.8,6.5-7.4,9.9-10.8l0.9-0.9l1.8,1.9l-0.9,0.9c-3.4,3.3-6.6,6.9-9.7,10.6L1821.1,562.8z
								 M1956.9,542.7l-2-1.7l0.9-1c3.1-3.7,6.5-7.3,10.1-10.6l1-0.9l1.8,1.9l-1,0.9c-3.5,3.3-6.8,6.8-9.9,10.4L1956.9,542.7z
								 M1841.4,542.5l-1.6-2.1l1-0.8c3.9-3,7.9-5.8,12.1-8.3l1.1-0.7l1.4,2.3l-1.1,0.7c-4.1,2.5-8,5.2-11.8,8.2L1841.4,542.5z
								 M1988.3,538.8l-0.8-1c-2.9-3.6-6.4-6.8-10.4-9.6l-1.1-0.8l1.5-2.1l1.1,0.8c4.1,3,7.8,6.4,10.9,10.1l0.8,1L1988.3,538.8z
								 M1865.8,527.4l-1.1-2.4l1.2-0.5c4.4-2,9-3.9,13.6-5.4l1.2-0.4l0.9,2.5l-1.2,0.4c-4.5,1.6-9,3.4-13.4,5.4L1865.8,527.4z
								 M1977.6,522.8l-1.6-2.1l1-0.8c3.8-2.9,7.9-5.7,12.1-8.3l1.1-0.7l1.4,2.2l-1.1,0.7c-4.1,2.5-8.1,5.3-11.9,8.1L1977.6,522.8z
								 M1965.9,521.7l-1.2-0.5c-4.2-1.8-8.8-3.4-13.6-4.5l-1.3-0.3l0.6-2.6l1.3,0.3c4.9,1.2,9.6,2.8,14,4.7l1.2,0.5L1965.9,521.7z
								 M1892.9,517.8l-0.6-2.6l1.3-0.3c4.8-1.1,9.6-2,14.4-2.7l1.3-0.2l0.3,2.6l-1.3,0.2c-4.7,0.6-9.5,1.5-14.2,2.6L1892.9,517.8z
								 M1938.3,514.4l-1.3-0.1c-4.6-0.5-9.5-0.6-14.4-0.5l-1.3,0l-0.1-2.6l1.3,0c5-0.1,9.9,0.1,14.7,0.5l1.3,0.1L1938.3,514.4z
								 M2001.9,507.5l-1.1-2.4l1.2-0.6c4.3-2,8.9-3.9,13.7-5.4l1.3-0.4l0.8,2.5l-1.3,0.4c-4.6,1.5-9.1,3.3-13.4,5.3L2001.9,507.5z
								 M2131.7,504.9l-1.3-0.4c-4.6-1.3-9.3-2.5-14-3.5l-1.3-0.3l0.6-2.6l1.3,0.3c4.7,1.1,9.5,2.3,14.2,3.6l1.3,0.4L2131.7,504.9z
								 M2103.5,498.4l-1.3-0.2c-4.8-0.8-9.6-1.5-14.3-2l-1.3-0.1l0.3-2.6l1.3,0.1c4.7,0.5,9.6,1.2,14.5,2l1.3,0.2L2103.5,498.4z
								 M2029.1,498.3l-0.5-2.6l1.3-0.3c4.7-1,9.5-1.7,14.5-2.3l1.3-0.1l0.3,2.6l-1.3,0.1c-4.9,0.5-9.7,1.3-14.2,2.2L2029.1,498.3z
								 M2074.8,495.1l-1.3-0.1c-4.9-0.2-9.7-0.3-14.4-0.2l-1.3,0l-0.1-2.6l1.3,0c4.8-0.1,9.7-0.1,14.6,0.2l1.3,0.1L2074.8,495.1z"
								/>
						</g>
					</g>
				</g>
			</g>
		</g>
		<g>
			<g>
				<g>
					<g>
						<path fill="#FF424D" d="M2176.3,549.5l15.1-13.3c0,0,65.9,1.5,66.8,1.2c1-0.3,36.6-12.7,36.6-12.7l-41.6-8l-69.9,0.8
							L2176.3,549.5z"/>
					</g>
				</g>
			</g>
			<g>
				<g>
					<g>
						<polygon fill="#FD7583" points="2172.2,482 2294.8,524.7 2183.3,517.6 						"/>
					</g>
				</g>
			</g>
			<g>
				<g>
					<g>
						<polygon fill="#FD7583" points="2191.4,536.2 2203,574.1 2294.8,524.7 						"/>
					</g>
				</g>
			</g>
		</g>
	</g>
	<g>
		<g>
			<g>
				<g>
					<path fill="#7FC6A6" d="M1626.9,709.4c-12.6-7-26-11.8-39.8-14.4l-7.9-33.8l-23.7,1.1l-23.7,1.1l-4.7,34.4
						c-13.5,3.8-26.4,9.8-38.3,18l-29.5-18.3l-16,17.5l-16,17.5l21,27.6c-7,12.6-11.8,26-14.4,39.8l-33.8,7.9l1.1,23.7l1.1,23.7
						l34.4,4.7c3.8,13.5,9.8,26.4,18,38.3l-18.3,29.5l17.5,16l17.5,16l27.6-21c12.6,7,26,11.8,39.8,14.4l7.9,33.8l23.7-1.1l23.7-1.1
						l4.7-34.4c13.5-3.8,26.4-9.8,38.3-18l29.5,18.3l16-17.5l16-17.5l-21-27.6c7-12.6,11.8-26,14.4-39.8l33.8-7.9l-1.1-23.7
						l-1.1-23.7l-34.4-4.7c-3.8-13.5-9.8-26.4-18-38.3l18.3-29.5l-17.5-16l-17.5-16L1626.9,709.4z M1628.9,884
						c-33.1,36.3-89.4,39-125.7,5.9c-36.3-33.1-39-89.4-5.9-125.7c33.1-36.3,89.4-39,125.7-5.9C1659.4,791.4,1662,847.7,1628.9,884z
						"/>
				</g>
			</g>
		</g>
	</g>
	<g>
		<g>
			<g>
				<g>
					<path fill="#F7AB48" d="M1446,490.1c-7.5-5.1-15.8-8.8-24.3-11.2l-3.1-21.7l-15-0.6l-15-0.6l-4.8,21.4
						c-8.7,1.7-17.2,4.8-25.1,9.3l-17.6-13.1l-11,10.2l-11,10.2l11.7,18.5c-5.1,7.5-8.8,15.8-11.2,24.3l-21.7,3.1l-0.6,15l-0.6,15
						l21.4,4.8c1.7,8.7,4.8,17.2,9.3,25.1l-13.1,17.6l10.2,11l10.2,11l18.5-11.7c7.5,5.1,15.8,8.8,24.3,11.2l3.1,21.7l15,0.6l15,0.6
						l4.8-21.4c8.7-1.7,17.2-4.8,25.1-9.3L1458,644l11-10.2l11-10.2l-11.7-18.5c5.1-7.5,8.8-15.8,11.2-24.3l21.7-3.1l0.6-15l0.6-15
						L1481,543c-1.7-8.7-4.8-17.2-9.3-25.1l13.1-17.6l-10.2-11l-10.2-11L1446,490.1z M1437.8,600.1c-22.8,21.1-58.4,19.7-79.4-3.1
						c-21.1-22.8-19.7-58.4,3.1-79.4c22.8-21.1,58.4-19.7,79.4,3.1C1462,543.4,1460.6,579,1437.8,600.1z"/>
				</g>
			</g>
		</g>
	</g>
	<g>
		<g>
			<g>
				<g>
					<path fill="#FFFFFF" d="M646,467.4c34.5-1.8,152.8-6.8,233.8,5.2c10.5,1.6,17.2-11,9.9-18.8c-4.2-4.5-11.5-8.2-23.7-9.1
						c0,0,4.2-75.5-52.9-80.5c-65.4-5.7-66.2,68.5-66.2,68.5s-29.7-28.2-51.2,7.6c0,0-37.1-21.4-55.8,18.1
						C637.9,462.7,641.3,467.6,646,467.4z"/>
				</g>
			</g>
		</g>
	</g>
	<g>
		<g>
			<g>
				<g>
					<path fill="#FFFFFF" d="M2388.9,1064.5c-23.4-1.3-78.4-3.7-126.2,0.3c-19.8,1.7-36.8-14.1-36.4-34c0.2-8.1,3.1-17.6,10.6-28.3
						c29-41.2,79.4-1.9,79,19.1c0,0,10.2-31.5,41.2-26c31,5.5,20,51.3,20,51.3s10-2.1,16.9,2.6
						C2400.8,1054.3,2397.1,1064.9,2388.9,1064.5z"/>
				</g>
			</g>
		</g>
	</g>
	<g>
		<g>
			<g>
				<path fill="#4CB7D8" d="M578.9,1737.3V910.6c0-39.3,27.3-71.1,61-71.1h1373.7c33.7,0,61,31.8,61,71.1v826.7H578.9z"/>
			</g>
		</g>
	</g>
	<g>
		<g>
			<g>
				<path fill="#DCF4FF" d="M613.9,1692.8V945.6c0-53.6,14.9-58.8,33.2-58.8h1359.1c18.4,0,33.2,14.4,33.2,32.1v774H613.9z"/>
			</g>
		</g>
	</g>
	<g>
		<g>
			<g>
				<path fill="#21111D" d="M612.1,1596.5l3.6-3.6V918.9c0-16.7,14.1-30.3,31.4-30.3V885c-19.3,0-35,15.2-35,33.9V1596.5z"/>
			</g>
		</g>
	</g>
	<g>
		<g>
			<g>
				<path fill="#21111D" d="M2040.7,1692.8h-2.5v-774c0-17-14.3-30.8-32-30.8H647.1v-2.5h1359.1c19,0,34.5,15,34.5,33.3V1692.8z"/>
			</g>
		</g>
	</g>
	<g>
		<g>
			<rect x="434.5" y="1737.3" fill="#128CB2" width="1726.2" height="47.5"/>
		</g>
	</g>
	<g>
		<g>
			<g>
				<polygon fill="#FFFFFF" points="916.5,546.7 916.5,1158.6 460.8,1158.6 460.8,647.4 559,546.7 				"/>
			</g>
		</g>
		<g>
			<g>
				<polygon fill="#3AA1C9" points="460.8,647.6 558.4,546.7 558.4,647.6 				"/>
			</g>
		</g>
		<g>
			<g>
				<path fill="#3AA1C9" d="M602.8,622.8h198.8c2.9,0,5.2-2.3,5.2-5.2l0,0c0-2.9-2.3-5.2-5.2-5.2H602.8c-2.9,0-5.2,2.3-5.2,5.2l0,0
					C597.7,620.5,600,622.8,602.8,622.8z"/>
			</g>
		</g>
		<g>
			<g>
				<path fill="#3AA1C9" d="M575.7,662.9h253c2.9,0,5.2-2.3,5.2-5.2l0,0c0-2.9-2.3-5.2-5.2-5.2h-253c-2.9,0-5.2,2.3-5.2,5.2l0,0
					C570.6,660.5,572.9,662.9,575.7,662.9z"/>
			</g>
		</g>
		<g>
			<g>
				<path fill="#3AA1C9" d="M508.6,758.4h366.6c2.9,0,5.2-2.3,5.2-5.2l0,0c0-2.9-2.3-5.2-5.2-5.2H508.6c-2.9,0-5.2,2.3-5.2,5.2l0,0
					C503.4,756.1,505.8,758.4,508.6,758.4z"/>
			</g>
		</g>
		<g>
			<g>
				<path fill="#3AA1C9" d="M508.6,803.6h366.6c2.9,0,5.2-2.3,5.2-5.2l0,0c0-2.9-2.3-5.2-5.2-5.2H508.6c-2.9,0-5.2,2.3-5.2,5.2l0,0
					C503.4,801.3,505.8,803.6,508.6,803.6z"/>
			</g>
		</g>
		<g>
			<g>
				<path fill="#3AA1C9" d="M508.6,848.7h366.6c2.9,0,5.2-2.3,5.2-5.2l0,0c0-2.9-2.3-5.2-5.2-5.2H508.6c-2.9,0-5.2,2.3-5.2,5.2l0,0
					C503.4,846.4,505.8,848.7,508.6,848.7z"/>
			</g>
		</g>
		<g>
			<g>
				<path fill="#3AA1C9" d="M508.6,900.3h366.6c2.9,0,5.2-2.3,5.2-5.2l0,0c0-2.9-2.3-5.2-5.2-5.2H508.6c-2.9,0-5.2,2.3-5.2,5.2l0,0
					C503.4,898,505.8,900.3,508.6,900.3z"/>
			</g>
		</g>
		<g>
			<g>
				<path fill="#3AA1C9" d="M508.6,945.5h366.6c2.9,0,5.2-2.3,5.2-5.2l0,0c0-2.9-2.3-5.2-5.2-5.2H508.6c-2.9,0-5.2,2.3-5.2,5.2l0,0
					C503.4,943.2,505.8,945.5,508.6,945.5z"/>
			</g>
		</g>
		<g>
			<g>
				<path fill="#3AA1C9" d="M508.6,1100.5h366.6c2.9,0,5.2-2.3,5.2-5.2l0,0c0-2.9-2.3-5.2-5.2-5.2H508.6c-2.9,0-5.2,2.3-5.2,5.2l0,0
					C503.4,1098.2,505.8,1100.5,508.6,1100.5z"/>
			</g>
		</g>
		<g>
			<g>
				<path fill="#3AA1C9" d="M508.6,1063.6h366.6c2.9,0,5.2-2.3,5.2-5.2l0,0c0-2.9-2.3-5.2-5.2-5.2H508.6c-2.9,0-5.2,2.3-5.2,5.2l0,0
					C503.4,1061.3,505.8,1063.6,508.6,1063.6z"/>
			</g>
		</g>
	</g>
	<g>
		<g>
			<rect x="1033.4" y="955.6" fill="#FFFFFF" width="819" height="638.6"/>
		</g>
	</g>
	<g>
		<g>
			<rect x="1169.8" y="990.8" fill="#D4EEF4" width="648.7" height="32.5"/>
		</g>
	</g>
	<g>
		<g>
			<rect x="1069.1" y="1074.6" fill="#D4EEF4" width="749.4" height="113.2"/>
		</g>
	</g>
	<g>
		<g>
			<rect x="1069.1" y="1184.1" fill="#DEF8FC" width="749.4" height="374"/>
		</g>
	</g>
	<g>
		<g>
			<circle fill="#D4EEF4" cx="1135.7" cy="1007.1" r="16.3"/>
		</g>
	</g>
	<g>
		<g>
			<circle fill="#D4EEF4" cx="1085.4" cy="1007.1" r="16.3"/>
		</g>
	</g>
	<g>
		<g>
			<rect x="1092" y="1100.7" fill="#FFFFFF" width="585.3" height="11.2"/>
		</g>
	</g>
	<g>
		<g>
			<rect x="1092" y="1136.8" fill="#FFFFFF" width="585.3" height="11.2"/>
		</g>
	</g>
	<g>
		<g>
			<path fill="#D4EEF4" d="M1329.3,1223.1h462.5c2.9,0,5.2-2.3,5.2-5.2l0,0c0-2.9-2.3-5.2-5.2-5.2h-462.5c-2.9,0-5.2,2.3-5.2,5.2
				l0,0C1324.1,1220.8,1326.4,1223.1,1329.3,1223.1z"/>
		</g>
	</g>
	<g>
		<g>
			<path fill="#D4EEF4" d="M1329.3,1254.5h462.5c2.9,0,5.2-2.3,5.2-5.2l0,0c0-2.9-2.3-5.2-5.2-5.2h-462.5c-2.9,0-5.2,2.3-5.2,5.2
				l0,0C1324.1,1252.2,1326.4,1254.5,1329.3,1254.5z"/>
		</g>
	</g>
	<g>
		<g>
			<path fill="#D4EEF4" d="M1329.3,1285.9h462.5c2.9,0,5.2-2.3,5.2-5.2l0,0c0-2.9-2.3-5.2-5.2-5.2h-462.5c-2.9,0-5.2,2.3-5.2,5.2
				l0,0C1324.1,1283.6,1326.4,1285.9,1329.3,1285.9z"/>
		</g>
	</g>
	<g>
		<g>
			<path fill="#D4EEF4" d="M1329.3,1348.6h462.5c2.9,0,5.2-2.3,5.2-5.2l0,0c0-2.9-2.3-5.2-5.2-5.2h-462.5c-2.9,0-5.2,2.3-5.2,5.2
				l0,0C1324.1,1346.3,1326.4,1348.6,1329.3,1348.6z"/>
		</g>
	</g>
	<g>
		<g>
			<path fill="#D4EEF4" d="M1329.3,1380h462.5c2.9,0,5.2-2.3,5.2-5.2l0,0c0-2.9-2.3-5.2-5.2-5.2h-462.5c-2.9,0-5.2,2.3-5.2,5.2l0,0
				C1324.1,1377.7,1326.4,1380,1329.3,1380z"/>
		</g>
	</g>
	<g>
		<g>
			<path fill="#D4EEF4" d="M1329.3,1411.4h462.5c2.9,0,5.2-2.3,5.2-5.2l0,0c0-2.9-2.3-5.2-5.2-5.2h-462.5c-2.9,0-5.2,2.3-5.2,5.2
				l0,0C1324.1,1409,1326.4,1411.4,1329.3,1411.4z"/>
		</g>
	</g>
	<g>
		<g>
			<path fill="#D4EEF4" d="M1329.3,1474.1h462.5c2.9,0,5.2-2.3,5.2-5.2l0,0c0-2.9-2.3-5.2-5.2-5.2h-462.5c-2.9,0-5.2,2.3-5.2,5.2
				l0,0C1324.1,1471.8,1326.4,1474.1,1329.3,1474.1z"/>
		</g>
	</g>
	<g>
		<g>
			<path fill="#D4EEF4" d="M1329.3,1505.5h462.5c2.9,0,5.2-2.3,5.2-5.2l0,0c0-2.9-2.3-5.2-5.2-5.2h-462.5c-2.9,0-5.2,2.3-5.2,5.2
				l0,0C1324.1,1503.2,1326.4,1505.5,1329.3,1505.5z"/>
		</g>
	</g>
	<g>
		<g>
			<rect x="1097.2" y="1212.8" fill="#D4EEF4" width="197" height="176.7"/>
		</g>
	</g>
	<g>
		<g>
			<rect x="1097.2" y="1435.8" fill="#D4EEF4" width="197" height="69.7"/>
		</g>
	</g>
	<g>
		<g>
			<polygon fill="#D4EEF4" points="1111,1348.6 1144.5,1293.2 1194,1314.3 1227.2,1244.2 1277,1348.6 			"/>
		</g>
	</g>
	<g>
		<g>
			<circle fill="#D4EEF4" cx="1169.8" cy="1260.4" r="15.1"/>
		</g>
	</g>
	<g>
		<rect x="789.3" y="1691.6" fill="#21111D" width="999.1" height="2.5"/>
	</g>
	<g>
		<g>
			<g>
				<g>
					<path fill="#FF424D" d="M2062.9,1093.1l26.9-19.5l1.8-1.3l26.9-19.5l242.3,290.1c6.8,8.2,5.3,20.4-3.3,26.6l-68.4,49.5
						c-8.6,6.2-20.7,3.9-26.3-5.2L2062.9,1093.1z"/>
				</g>
			</g>
		</g>
		<g>
			<g>
				<g>
					<path fill="#F99247" d="M2063.4,1102.5l64.3-46.5c4.2-3.1,5.2-9,2.1-13.2l-22.6-31.2l-79.7,57.7l22.6,31.2
						C2053.2,1104.6,2059.2,1105.6,2063.4,1102.5z"/>
				</g>
			</g>
		</g>
		<g>
			<g>
				<g>
					<path fill="#21111D" d="M2080.4,1092.2l43.4-31.4c7.7-5.5,9.4-16.3,3.8-23.9l-19-26.3l-2.6,1.9l19,26.3
						c4.5,6.2,3.1,14.9-3.1,19.4l-43.4,31.4L2080.4,1092.2z"/>
				</g>
			</g>
		</g>
		<g>
			<g>
				<g>
					<circle fill="#D4EEF4" cx="1961.2" cy="892.4" r="179.8"/>
				</g>
			</g>
		</g>
		<g>
			<g>
				<g>
					
						<ellipse transform="matrix(-0.1584 0.9874 -0.9874 -0.1584 3003.9565 -816.8224)" fill="#F3FFFE" cx="1850.1" cy="871.9" rx="67.5" ry="32.2"/>
				</g>
			</g>
		</g>
		<g>
			<g>
				<g>
					
						<rect x="2241.8" y="1015.6" transform="matrix(-0.7663 0.6425 -0.6425 -0.7663 4735.585 683.8387)" fill="#21111D" width="3.3" height="375.2"/>
				</g>
			</g>
		</g>
		<g>
			<g>
				<g>
					<path fill="#21111D" d="M1986.7,738.8l0.9-3.1c-0.4-0.1-39.8-11.4-75.7,4.4l1.3,3C1948.1,727.8,1986.3,738.7,1986.7,738.8z"/>
				</g>
			</g>
		</g>
		<g>
			<g>
				<g>
					<path fill="#21111D" d="M1990.2,761.1l0.9-3.1c-0.4-0.1-39.8-11.4-75.7,4.4l1.3,3C1951.5,750.1,1989.8,761,1990.2,761.1z"/>
				</g>
			</g>
		</g>
		<g>
			<g>
				<path fill="#FECC86" d="M2066.6,1038c-80.4,58.2-192.8,40.2-251-40.3c-58.2-80.4-40.2-192.8,40.3-251
					c80.4-58.2,192.8-40.2,251,40.3C2165.1,867.4,2147,979.8,2066.6,1038z M2130,770.2c-67.5-93.2-197.7-114.1-290.9-46.7
					c-93.2,67.5-114.1,197.7-46.7,290.9c67.5,93.2,197.7,114.1,290.9,46.7C2176.6,993.7,2197.5,863.5,2130,770.2z"/>
			</g>
		</g>
		<g>
			<g>
				<g>
					<path fill="#21111D" d="M2084.3,1062.5c93.8-67.9,114.9-199.4,47-293.2c-67.9-93.8-199.4-114.9-293.2-47
						c-44,31.8-73.6,78.7-83.4,132.1l3.2,0.6c9.7-52.5,38.8-98.7,82.1-130c92.3-66.8,221.8-46,288.6,46.3
						c66.8,92.3,46,221.8-46.3,288.6c-42.9,31-95.3,44.3-147.8,37.5l-0.4,3.2C1987.5,1107.5,2040.8,1094,2084.3,1062.5z"/>
				</g>
			</g>
		</g>
	</g>
	<g>
		<g>
			<g>
				<g>
					<path fill="#FE9F73" d="M1014.9,705.9l12.7,5.5l14.1,6.7c0,0,21.9,3.8,22.2,3.7c0,0-1.8,3.3-1.8,3.3
						c27.1,3.3,112.6,6.9,126.7,8.4c8.5,0.9,16.6,11.5,21.7,19.7l-7,4.7c0,0-74.7-3.3-74.5-1.7c0,0.5,2.2,7.9,5.4,17.6
						c-46.1,3.1-110.7,2.8-122.7-16.2C1001.8,741.9,1011.4,719.5,1014.9,705.9z"/>
				</g>
			</g>
		</g>
		<g>
			<g>
				<g>
					<g>
						<g>
							<g>
								<g>
									<g>
										<g>
											<g>
												<g>
													<polygon fill="#FE9F73" points="1305,1041.1 1248.2,1041.8 1247.4,988.8 1303.9,981.8 													"/>
												</g>
											</g>
										</g>
									</g>
								</g>
							</g>
						</g>
					</g>
				</g>
			</g>
		</g>
		<g>
			<g>
				<g>
					<g>
						<g>
							<g>
								<g>
									<g>
										<path fill="#3AA1C9" d="M1359.6,1060.8l-115-14l2.8-22.9c0,0,9.7-10,21.8-2.8c0,0,17.2,15.8,36.2,1.7l40.4,23.3
											C1345.7,1046,1360.6,1053,1359.6,1060.8z"/>
									</g>
								</g>
							</g>
						</g>
					</g>
				</g>
			</g>
			<g>
				<g>
					<g>
						<g>
							<g>
								<g>
									<g>
										<path fill="#472A31" d="M1243.7,1054.8l118.8,14.5c0.7,0.1,1.2-0.4,1.3-1l0.7-5.7c0.1-0.7-0.4-1.2-1-1.3l-118.8-14.5
											L1243.7,1054.8z"/>
									</g>
								</g>
							</g>
						</g>
					</g>
				</g>
			</g>
			<g>
				<g>
					<g>
						<g>
							<g>
								<g>
									<g>
										<path fill="#D7E4F7" d="M1317.3,1029.6c-4.6,5.5-13.8,16.6-19.7,23.6l-7.8-1c5.2-6.3,16.2-19.5,21.7-26L1317.3,1029.6z"/>
									</g>
								</g>
							</g>
						</g>
					</g>
				</g>
			</g>
			<g>
				<g>
					<g>
						<g>
							<g>
								<g>
									<g>
										<path fill="#D7E4F7" d="M1310.2,1054.7l-7.8-1c4.3-5.1,12.6-15.1,18.4-22.1l5.8,3.4
											C1321.7,1040.9,1314.9,1049.2,1310.2,1054.7z"/>
									</g>
								</g>
							</g>
						</g>
					</g>
				</g>
			</g>
		</g>
		<g>
			<g>
				<g>
					<g>
						<g>
							<path fill="#FECC86" d="M1128.5,851.9c0,0-48.8,0.8-83.1-0.4c-11-0.4-20.8,0.4-26.6-0.9c-23.8-5.3-29.7-79.7-2.6-125.2
								c27.1-45.6,121.7,94.3,121.7,94.3L1128.5,851.9z"/>
						</g>
					</g>
				</g>
			</g>
		</g>
		<g>
			<g>
				<g>
					<g>
						<g>
							<g>
								<g>
									<g>
										<g>
											<g>
												<g>
													<polygon fill="#FE9F73" points="1216.9,1041.1 1160.2,1041.8 1159.4,988.8 1215.9,981.8 													"/>
												</g>
											</g>
										</g>
									</g>
								</g>
							</g>
						</g>
					</g>
				</g>
			</g>
		</g>
		<g>
			<g>
				<g>
					<g>
						<g>
							<g>
								<g>
									<g>
										<path fill="#4CB7D8" d="M1267.5,1066.5l-113.6-22.9l4.6-22.7c0,0,10.5-9.2,21.9-1.1c0,0,15.9,17.1,35.9,4.5l38.4,26.4
											C1254.8,1050.8,1269,1058.8,1267.5,1066.5z"/>
									</g>
								</g>
							</g>
						</g>
					</g>
				</g>
			</g>
			<g>
				<g>
					<g>
						<g>
							<g>
								<g>
									<g>
										<path fill="#683D46" d="M1152.3,1051.5l117.3,23.7c0.6,0.1,1.3-0.3,1.4-0.9l1.1-5.6c0.1-0.6-0.3-1.3-0.9-1.4l-117.3-23.7
											L1152.3,1051.5z"/>
									</g>
								</g>
							</g>
						</g>
					</g>
				</g>
			</g>
			<g>
				<g>
					<g>
						<g>
							<g>
								<g>
									<g>
										<path fill="#D7E4F7" d="M1227.7,1032.2c-5,5.1-15,15.4-21.4,22l-7.7-1.6c5.7-5.9,17.7-18.1,23.6-24.2L1227.7,1032.2z"/>
									</g>
								</g>
							</g>
						</g>
					</g>
				</g>
			</g>
			<g>
				<g>
					<g>
						<g>
							<g>
								<g>
									<g>
										<path fill="#D7E4F7" d="M1218.7,1056.7l-7.7-1.6c4.6-4.8,13.7-14.1,20.1-20.6l5.6,3.8
											C1231.2,1043.8,1223.8,1051.5,1218.7,1056.7z"/>
									</g>
								</g>
							</g>
						</g>
					</g>
				</g>
			</g>
		</g>
		<g>
			<g>
				<g>
					<g>
						<g>
							<g>
								<path fill="#FFB357" d="M1181.1,752.4c0,0,120,7.7,123.5,21.5c3.5,13.9,13.4,161.2,6,224c0,0-45.5,3.1-67.3-2.1l-5.3-153.2
									l-35.9-4.1l-82.3-99L1181.1,752.4z"/>
							</g>
						</g>
					</g>
				</g>
			</g>
		</g>
		<g>
			<g>
				<g>
					<g>
						<g>
							<g>
								<path fill="#FECC86" d="M1123.5,750.1c0,0,92.5,26.1,96,40c3.5,13.9,13.3,145.3,5.9,208.2c0,0-49,2.8-70.7-2.5l-5.9-144.6
									l-21.1,0.7l-51.2-90.1L1123.5,750.1z"/>
							</g>
						</g>
					</g>
				</g>
			</g>
		</g>
		<g>
			<g>
				<g>
					<g>
						<g>
							<g>
								<path fill="#21111D" d="M1184,999.9c-21.6,0-29.3-3.3-29.7-3.4l-0.5-0.2l-5.7-145.4l8.9,4.2l-0.7,1.5l-6.5-3l5.5,141.6
									c2.3,0.8,13.6,4,40.1,2.8l0.1,1.7C1191.3,999.9,1187.5,999.9,1184,999.9z"/>
							</g>
						</g>
					</g>
				</g>
			</g>
		</g>
		<g>
			<g>
				<g>
					<g>
						<g>
							<g>
								<path fill="#21111D" d="M1163.7,968.6c-2.3-8.9-3-95.8-3-99.5l1.7,0c0,0.9,0.7,90.3,2.9,99L1163.7,968.6z"/>
							</g>
						</g>
					</g>
				</g>
			</g>
		</g>
		<g>
			<g>
				<g>
					<g>
						<g>
							<g>
								<path fill="#21111D" d="M1249.7,845.8c-11-3.5-26.1-4.1-26.2-4.1l0.1-1.7c0.2,0,15.5,0.5,26.7,4.2L1249.7,845.8z"/>
							</g>
						</g>
					</g>
				</g>
			</g>
		</g>
		<g>
			<g>
				<g>
					<g>
						<g>
							<g>
								<path fill="#21111D" d="M1274.4,999.6c-18.5,0-31.2-3-31.4-3.1l-0.6-0.1l-5.4-154.9l6.8,5.5l-1,1.3l-4-3.2l5.2,150
									c2.8,0.6,15.2,3,32,2.9l0,1.7C1275.5,999.6,1275,999.6,1274.4,999.6z"/>
							</g>
						</g>
					</g>
				</g>
			</g>
		</g>
		<g>
			<g>
				<g>
					<g>
						<g>
							<g>
								<path fill="#21111D" d="M1251.1,971.8c-2.3-13.5-0.1-104.5,0-108.4l1.7,0c0,0.9-2.3,94.8,0,108L1251.1,971.8z"/>
							</g>
						</g>
					</g>
				</g>
			</g>
		</g>
		<g>
			<g>
				<g>
					<g>
						<g>
							<path fill="#21111D" d="M1091.8,853.5c-21.3,0-46.9-0.7-75.6-2.9l0.1-1.7c85.6,6.4,143,0.1,143.6,0l0.2,1.7
								C1159.7,850.6,1134.1,853.5,1091.8,853.5z"/>
						</g>
					</g>
				</g>
			</g>
		</g>
		<g>
			<g>
				<g>
					<g>
						<g>
							<g>
								<g>
									<path fill="#FD7583" d="M1121.1,703.4c1.7,0,68.1,28.6,68.1,28.6l-13.4,25.6l-37.3-8.2L1121.1,703.4z"/>
								</g>
							</g>
						</g>
					</g>
				</g>
			</g>
		</g>
		<g>
			<g>
				<g>
					<g>
						<g>
							<path fill="#FD7583" d="M1024.7,584.3c0,0-28.3-1-41.8,6.7c-20.1,11.4-13,76.7-13,76.7s17.1-9.3,18.1-12.4
								C989.2,652.1,1024.7,584.3,1024.7,584.3z"/>
						</g>
					</g>
				</g>
			</g>
		</g>
		<g>
			<g>
				<g>
					<g>
						<g>
							<g>
								<g>
									<path fill="#21111D" d="M1017.9,726.1c0,0,0.1,0,0.1,0l20.8,4.8c0.4,0.1,0.8-0.2,0.9-0.6s-0.2-0.8-0.6-0.9l-20.8-4.8
										c-0.4-0.1-0.8,0.2-0.9,0.6C1017.3,725.6,1017.5,726,1017.9,726.1z"/>
								</g>
							</g>
						</g>
					</g>
				</g>
			</g>
		</g>
		<g>
			<g>
				<g>
					<path fill="#F9B59D" d="M1007,713.8l12.7,5.5l14.1,6.7c0,0,21.9,3.8,22.2,3.7c0,0-1.8,3.3-1.8,3.3
						c27.1,3.3,112.6,6.9,126.7,8.4c8.5,0.9,16.6,11.5,21.7,19.7l-7,4.7c0,0-74.7-3.3-74.5-1.7c0,0.5,2.2,7.9,5.4,17.6
						c-46.1,3.1-110.7,2.8-122.7-16.2C993.9,749.8,1003.5,727.4,1007,713.8z"/>
				</g>
			</g>
		</g>
		<g>
			<g>
				<g>
					<g>
						<g>
							<path fill="#FD7583" d="M997.4,589.4c16.1-2.2,58.5-3.8,58.5-3.8s5.6,1.5,3.8,0.6c46.8,8.3,52,43,52,43l22.8,100.3l25.4,1.4
								c8.2,15.6,2.2,57.6,2.2,57.6L1039,802.5c0,0-26.6,4.4-49.1-24.5c-14.9-19.1-20-77.7-20-120.6
								C969.9,657.4,972.4,592.9,997.4,589.4z"/>
						</g>
					</g>
				</g>
			</g>
		</g>
		<g>
			<g>
				<g>
					<g>
						<g>
							<polygon fill="#E23E3D" points="1342.3,667.1 1225.1,667.1 1184.2,771.2 1301.5,771.2 							"/>
						</g>
					</g>
				</g>
				<g>
					<g>
						<g>
							<polygon fill="#CC2323" points="1184.2,771.2 1190.3,771.2 1231.2,667.1 1225.1,667.1 							"/>
						</g>
					</g>
				</g>
				<g>
					<g>
						<g>
							
								<ellipse transform="matrix(-0.9468 -0.3217 0.3217 -0.9468 2244.1001 1806.2791)" fill="#E2F2F1" cx="1271.3" cy="717.7" rx="5.9" ry="9.1"/>
						</g>
					</g>
				</g>
			</g>
			<g>
				<g>
					<g>
						<path fill="#CC2323" d="M1145.4,762.8h43.8v8.4h-43.8c-2.3,0-4.2-1.9-4.2-4.2l0,0C1141.2,764.7,1143.1,762.8,1145.4,762.8z"/>
					</g>
				</g>
			</g>
			<g>
				<g>
					<g>
						<rect x="1156.5" y="765.7" fill="#E23E3D" width="27.7" height="1.3"/>
					</g>
				</g>
			</g>
		</g>
		<g>
			<g>
				<g>
					<g>
						<g>
							<g>
								<g>
									<path fill="#21111D" d="M1038.8,731.3c0.1,0.1,0.3,0.1,0.5,0c0.4-0.1,0.7-0.5,0.6-0.9c-0.1-0.5-13-55.3-18.5-89.7
										c-0.1-0.4-0.5-0.7-0.9-0.6c-0.4,0.1-0.7,0.5-0.6,0.9c5.5,34.5,18.4,89.3,18.5,89.8C1038.4,731,1038.6,731.2,1038.8,731.3z"
										/>
								</g>
							</g>
						</g>
					</g>
				</g>
			</g>
		</g>
		<g>
			<g>
				<g>
					<g>
						<g>
							<g>
								<g>
									<path fill="#21111D" d="M1118.4,730.4c0.2,0.1,0.3,0.1,0.5,0c0.4-0.1,0.6-0.6,0.5-1c-0.2-0.6-19.3-61.2-23.3-82.1
										c-0.1-0.4-0.5-0.7-0.9-0.6c-0.4,0.1-0.7,0.5-0.6,0.9c4,21,23.1,81.7,23.3,82.3C1118.1,730.1,1118.2,730.3,1118.4,730.4z"/>
								</g>
							</g>
						</g>
					</g>
				</g>
			</g>
		</g>
		<g>
			<g>
				<g>
					<g>
						<g>
							<g>
								<g>
									<path fill="#21111D" d="M1040.8,615c0.6,0.1,1.2,0.1,1.8,0.2c0.4,0,0.7-0.2,0.7-0.6c0-0.4-0.2-0.7-0.6-0.7
										c-26.8-1.9-31.8-21.5-31.8-21.7c-0.1-0.3-0.4-0.6-0.7-0.5c-0.3,0.1-0.6,0.4-0.5,0.7C1009.7,592.6,1014.6,612.3,1040.8,615z
										"/>
								</g>
							</g>
						</g>
					</g>
				</g>
			</g>
		</g>
		<g>
			<g>
				<g>
					<g>
						<g>
							<g>
								<g>
									<path fill="#21111D" d="M1123.9,715.9c0.3,0.1,0.8,0,0.9-0.3l5.2-8.9l-0.1-0.3l-17.6-77.2c-0.1-0.7-1.6-9.7-9.3-19.6
										c-7.2-9.3-21.3-21.1-47.8-24.7c-0.4-0.1-0.8,0.2-0.9,0.7c-0.1,0.4,0.2,0.8,0.7,0.9c26,3.5,39.8,15,46.8,24
										c7.6,9.8,9,18.9,9,19l0,0.1l17.5,77l-4.9,8.4c-0.2,0.4-0.1,0.8,0.3,1.1C1123.8,715.9,1123.9,715.9,1123.9,715.9z"/>
								</g>
							</g>
						</g>
					</g>
				</g>
			</g>
		</g>
		<g>
			<g>
				<g>
					<g>
						<g>
							<g>
								<g>
									<path fill="#21111D" d="M1151.4,716.2c0.4,0.1,0.8,0,1-0.4c0.2-0.4,0-0.9-0.4-1l-22.5-9c-0.4-0.1-0.9,0-1,0.4
										c-0.2,0.4,0,0.9,0.4,1L1151.4,716.2C1151.4,716.2,1151.4,716.2,1151.4,716.2z"/>
								</g>
							</g>
						</g>
					</g>
				</g>
			</g>
		</g>
		<g>
			<g>
				<g>
					<g>
						<g>
							<path fill="#FD7583" d="M1159.9,730.9c0,0,8.1,19.2,2.2,57.6l-29.7-15.9l8.8-28.7L1159.9,730.9z"/>
						</g>
					</g>
				</g>
			</g>
		</g>
		<g>
			<g>
				<g>
					<g>
						<g>
							<g>
								<g>
									<path fill="#21111D" d="M1011.9,732c0.1,0,0.2,0.1,0.3,0c1.1,0,111.2-3.3,147.2-0.4c0.9,2.4,4.9,14.6,3.8,36.9
										c0,0.4,0.3,0.8,0.7,0.8c0.4,0,0.8-0.3,0.8-0.7c1.3-25.3-3.9-37.5-4.1-38l-0.2-0.4l-0.5,0c-35.6-3-146.7,0.3-147.8,0.3
										c-0.4,0-0.8,0.4-0.8,0.8C1011.4,731.6,1011.6,731.9,1011.9,732z"/>
								</g>
							</g>
						</g>
					</g>
				</g>
			</g>
		</g>
		<g>
			<g>
				<g>
					<g>
						<g>
							<g>
								<g>
									<g>
										<g>
											<g>
												<path fill="#FE9F73" d="M1062.2,527.3l0.9,33.8c0,0,0.7,10.9-8.7,12.5l2.2,14.5c0.8,5.4-2.3,10.6-7.4,12.4
													c-2.5,0.9-5.5,1.5-9,1.6c-10.9,0.3-17-7.7-18-11.8c-1-4.1,1.2-23.6,1.2-23.6l-0.6-9.6l0.3-37.1L1062.2,527.3z"/>
											</g>
										</g>
									</g>
								</g>
							</g>
						</g>
					</g>
				</g>
			</g>
			<g>
				<g>
					<g>
						<g>
							<g>
								<g>
									<g>
										<g>
											<g>
												<path fill="#F07162" d="M1032.1,565c0,0,1.1,18.2,23.9,19.3l-1.6-10.7C1054.4,573.6,1039.7,577,1032.1,565z"/>
											</g>
										</g>
									</g>
								</g>
							</g>
						</g>
					</g>
				</g>
			</g>
			<g>
				<g>
					<g>
						<g>
							<g>
								<g>
									<g>
										<g>
											<g>
												<path fill="#49263E" d="M1036.4,545.7c-0.1,0-0.2,0-0.3-0.1c-0.2-0.2-0.2-0.5,0-0.6c0.1-0.1,6.1-6.6,11.9-2.2
													c0.2,0.2,0.2,0.4,0.1,0.6c-0.2,0.2-0.4,0.2-0.6,0.1c-5.2-3.9-10.5,1.8-10.7,2.1C1036.7,545.7,1036.5,545.7,1036.4,545.7
													z"/>
											</g>
										</g>
									</g>
								</g>
							</g>
						</g>
					</g>
				</g>
			</g>
			<g>
				<g>
					<g>
						<g>
							<g>
								<g>
									<g>
										<path fill="#4C222E" d="M1020.7,541.4l9.8,1.8l1.8,1.8c0,0-1.3-16.4-3.2-19.6C1027.2,522.2,1020.7,541.4,1020.7,541.4z"/>
									</g>
								</g>
							</g>
						</g>
					</g>
				</g>
			</g>
			<g>
				<g>
					<g>
						<g>
							<g>
								<g>
									<g>
										<g>
											<g>
												<path fill="#49263E" d="M1055,542.5c-0.1,0-0.3,0-0.3-0.1c-0.2-0.2-0.2-0.5,0-0.6c0.2-0.2,4.4-4,7.2-1.7
													c0.2,0.2,0.2,0.4,0.1,0.6c-0.2,0.2-0.4,0.2-0.6,0.1c-2.2-1.8-6,1.6-6,1.7C1055.3,542.5,1055.2,542.5,1055,542.5z"/>
											</g>
										</g>
									</g>
								</g>
							</g>
						</g>
					</g>
				</g>
			</g>
			<g>
				<g>
					<g>
						<g>
							<g>
								<g>
									<g>
										<g>
											<g>
												<circle cx="1044.3" cy="547.4" r="1.4"/>
											</g>
										</g>
									</g>
								</g>
							</g>
						</g>
					</g>
				</g>
			</g>
			<g>
				<g>
					<g>
						<g>
							<g>
								<g>
									<g>
										<g>
											<g>
												<circle cx="1058.7" cy="545.6" r="1.4"/>
											</g>
										</g>
									</g>
								</g>
							</g>
						</g>
					</g>
				</g>
			</g>
			<g>
				<g>
					<g>
						<g>
							<g>
								<g>
									<g>
										<g>
											<g>
												<circle fill="#FE9F73" cx="1026.2" cy="547.4" r="8.2"/>
											</g>
										</g>
									</g>
								</g>
							</g>
						</g>
					</g>
				</g>
			</g>
			<g>
				<g>
					<g>
						<g>
							<g>
								<g>
									<g>
										<g>
											<g>
												<path fill="#F07162" d="M1024.9,551.9c-1.7,0-2.9-1.2-3.3-2.5c-0.5-1.5,0-3,1.2-3.8c1.8-1.2,3.4-0.5,4.3,0
													c-0.4-0.9-0.9-1.6-1.7-2c-1.6-0.8-3.6-0.1-3.6-0.1c-0.1,0-0.2,0-0.3-0.1c0-0.1,0-0.2,0.1-0.3c0.1,0,2.2-0.8,4,0.2
													c1,0.5,1.8,1.5,2.2,2.9l0.2,0.8l-0.6-0.6c-0.1-0.1-2.1-1.9-4.3-0.4c-1.2,0.8-1.3,2.3-1,3.2c0.3,1,1.3,2.2,2.8,2.1
													c0,0,0,0,0,0c0.1,0,0.2,0.1,0.2,0.2C1025.2,551.8,1025.1,551.9,1024.9,551.9C1025,551.9,1024.9,551.9,1024.9,551.9z"/>
											</g>
										</g>
									</g>
								</g>
							</g>
						</g>
					</g>
				</g>
			</g>
			<g>
				<g>
					<g>
						<g>
							<g>
								<g>
									<g>
										<g>
											<g>
												<path fill="#F07162" d="M1050.7,556.4c-0.1,0-0.2-0.1-0.2-0.1c0-0.1,0-0.2,0.1-0.3l4.5-1.6l-1.7-10.7
													c0-0.1,0.1-0.2,0.2-0.3c0.1,0,0.2,0.1,0.3,0.2l1.8,11L1050.7,556.4C1050.7,556.4,1050.7,556.4,1050.7,556.4z"/>
											</g>
										</g>
									</g>
								</g>
							</g>
						</g>
					</g>
				</g>
			</g>
			<g>
				<g>
					<g>
						<g>
							<g>
								<g>
									<g>
										<g>
											<g>
												<path fill="#FBFDFC" d="M1047.3,560.9c0.1,0,9-0.5,9-0.5s-1,3.7-4.3,3.9S1047.3,560.9,1047.3,560.9z"/>
											</g>
										</g>
									</g>
								</g>
							</g>
						</g>
					</g>
				</g>
			</g>
			<g>
				<g>
					<g>
						<g>
							<g>
								<g>
									<g>
										<path fill="#4C222E" d="M1020.7,541.4c0,0-3.2-15.8,1.5-21.9c4.7-6,32.4-17.1,35.8-14.3c3.5,2.9,0.2,6.6,0.2,6.6
											s11.1-3.9,13.9,6c2.8,9.9-21.2,14.7-35.7,10.5C1036.4,528.3,1027,531.3,1020.7,541.4z"/>
									</g>
								</g>
							</g>
						</g>
					</g>
				</g>
			</g>
		</g>
		<g>
			<g>
				<g>
					<g>
						<g>
							<g>
								<g>
									<path fill="#21111D" d="M1017.5,800.2c1.8,0.7,3.5,1.2,5.1,1.6c9.5,2.5,16.2,1.5,16.5,1.4c0.4-0.1,0.7-0.5,0.6-0.9
										c-0.1-0.4-0.5-0.7-0.9-0.6c-0.1,0-6.7,1-15.9-1.4c-8.5-2.3-21-8.1-32.5-22.8c-14.4-18.5-19.7-75.3-19.8-118.4
										c0-0.4-0.4-0.8-0.8-0.8c-0.4,0-0.8,0.4-0.8,0.8c0.1,43.3,5.5,100.6,20.1,119.4C998.8,790.8,1009.2,797,1017.5,800.2z"/>
								</g>
							</g>
						</g>
					</g>
				</g>
			</g>
		</g>
	</g>
	<g>
		<g>
			<g>
				<g>
					<g>
						<g>
							<g>
								<g>
									<g>
										<path fill="#F9956E" d="M1261.2,1637.9c-0.6-0.5-14.2-11.4-15.3-11.9c-10,6.8-8.7,25-19.7,32.4c7.2,1.5,12.2,2.5,14.2,2.8
											l6.1,13.6l0.8,3.6c0.4,1.7,2.4,2.9,4.4,2.7c2-0.2,3.4-1.7,3-3.4l0.4,1.5c0.4,1.7,2.4,2.9,4.4,2.7h0c2-0.2,3.4-1.7,3-3.4
											c0.4,1.7,2.4,2.9,4.4,2.7c2-0.2,3.4-1.7,3-3.4l-0.4-1.5c0.4,1.7,2.4,2.9,4.4,2.7l0,0c0.1,0,0.2,0,0.3,0c0,0,0,0,0,0
											c0,0,0,0,0,0c0.1,0,0.3,0,0.4-0.1c1.9-0.5,2.8-1.3,3-2.3c0.4-1.9-2.5-12.6-3.8-17.6
											C1272.2,1651.3,1268.6,1643.5,1261.2,1637.9z"/>
									</g>
								</g>
							</g>
						</g>
					</g>
				</g>
			</g>
		</g>
		<g>
			<g>
				<g>
					<g>
						<g>
							<g>
								<g>
									<g>
										<path fill="#F07162" d="M1270.1,1678.1c0.1,0,0.1,0,0.2,0c0.3-0.1,0.4-0.4,0.3-0.7l-8.1-21.6c-0.1-0.3-0.4-0.4-0.7-0.3
											c-0.3,0.1-0.4,0.4-0.3,0.7l8.1,21.6C1269.7,1677.9,1269.9,1678.1,1270.1,1678.1z"/>
									</g>
								</g>
							</g>
						</g>
					</g>
				</g>
			</g>
		</g>
		<g>
			<g>
				<g>
					<g>
						<g>
							<g>
								<g>
									<g>
										<path fill="#F07162" d="M1262.8,1679.8c0.1,0,0.1,0,0.2,0c0.3-0.1,0.4-0.4,0.3-0.7l-7.3-19.6c-0.1-0.3-0.4-0.4-0.7-0.3
											c-0.3,0.1-0.4,0.4-0.3,0.7l7.3,19.6C1262.3,1679.7,1262.6,1679.8,1262.8,1679.8z"/>
									</g>
								</g>
							</g>
						</g>
					</g>
				</g>
			</g>
		</g>
		<g>
			<g>
				<g>
					<g>
						<g>
							<g>
								<g>
									<path fill="#F9956E" d="M1230.8,1613.5c10.8,8.8,30.2,24.6,34.2,28.2c5.6,5-20.5,26.8-20.5,26.8s-30.2-16-46.9-27.4
										L1230.8,1613.5z"/>
								</g>
							</g>
						</g>
					</g>
				</g>
			</g>
		</g>
		<g>
			<g>
				<g>
					<g>
						<g>
							<g>
								<g>
									<g>
										<path fill="#F07162" d="M1255.2,1679.4c0.1,0,0.1,0,0.2,0c0.3-0.1,0.4-0.4,0.3-0.7l-5.9-15.8c-0.1-0.3-0.4-0.4-0.7-0.3
											c-0.3,0.1-0.4,0.4-0.3,0.7l5.9,15.8C1254.7,1679.3,1254.9,1679.4,1255.2,1679.4z"/>
									</g>
								</g>
							</g>
						</g>
					</g>
				</g>
			</g>
		</g>
		<g>
			<g>
				<g>
					<g>
						<g>
							<g>
								<g>
									<path fill="#21111D" d="M1340.1,1661.4c0.2,0,0.4-0.1,0.5-0.2l12-10.4c0.3-0.3,0.4-0.8,0.1-1.2c-0.3-0.3-0.8-0.4-1.2-0.1
										l-12,10.4c-0.3,0.3-0.4,0.8-0.1,1.2C1339.7,1661.3,1339.9,1661.4,1340.1,1661.4z"/>
								</g>
							</g>
						</g>
					</g>
				</g>
			</g>
		</g>
		<g>
			<g>
				<g>
					<g>
						<g>
							<g>
								<g>
									<g>
										<path fill="#FF424D" d="M1096.9,1681c0,0,9.6-29,111.5-23.6c116.5,6.2,195.8-14,216.4,23.6l-161.4,59.9L1096.9,1681z"/>
									</g>
								</g>
							</g>
						</g>
					</g>
				</g>
			</g>
			<g>
				<g>
					<g>
						<g>
							<g>
								<g>
									<g>
										<path fill="#FF424D" d="M1280.1,1732.6c0,0-92.4-55.7-124.8-64c-32.4-8.4-54.9,2.7-58.4,12.4c-3.5,9.8-6.8,36.1,14.7,51.6
											c9.3,6.7,115.9,38.4,144.1,45.8C1255.7,1778.4,1281.9,1767.4,1280.1,1732.6z"/>
									</g>
								</g>
							</g>
						</g>
					</g>
				</g>
			</g>
			<g>
				<g>
					<g>
						<g>
							<g>
								<g>
									<g>
										<path fill="#21111D" d="M1260.5,1721.9c0.3,0,0.6-0.1,0.7-0.4c0.2-0.4,0.1-0.9-0.3-1.1c-88.5-52.9-117.5-55.5-118.7-55.6
											c-0.5,0-0.8,0.3-0.9,0.8c0,0.5,0.3,0.8,0.8,0.9l0,0c0.3,0,30,2.8,118,55.4C1260.3,1721.8,1260.4,1721.9,1260.5,1721.9z"/>
									</g>
								</g>
							</g>
						</g>
					</g>
				</g>
			</g>
			<g>
				<g>
					<g>
						<g>
							<g>
								<g>
									<g>
										<path fill="#FE9F73" d="M1236.9,1787.4l41.8-21.3l-20.1-39.5l-34.1,17.4l0,0c0,0-56.4-0.5-59.1,2.2
											C1162.8,1748.8,1223.8,1794.1,1236.9,1787.4z"/>
									</g>
								</g>
							</g>
						</g>
					</g>
				</g>
			</g>
			<g>
				<g>
					<g>
						<g>
							<g>
								<g>
									<g>
										<path fill="#472A31" d="M1251.3,1780.1c-12-13.2-18.5-32.4-20.6-39.2l-6.2,3.2c0,0-56.4-0.5-59.1,2.2
											c-2.7,2.6,58.4,47.9,71.5,41.2L1251.3,1780.1z"/>
									</g>
								</g>
							</g>
						</g>
					</g>
				</g>
			</g>
			<g>
				<g>
					<g>
						<g>
							<g>
								<g>
									<g>
										<path fill="#FF424D" d="M1241.5,1732.6c0,0,92.4-55.7,124.8-64c32.4-8.4,54.9,2.7,58.4,12.4c3.5,9.8,6.8,36.1-14.7,51.6
											c-9.3,6.7-123.4,40.4-151.6,47.8C1258.5,1780.4,1239.8,1767.4,1241.5,1732.6z"/>
									</g>
								</g>
							</g>
						</g>
					</g>
				</g>
			</g>
			<g>
				<g>
					<g>
						<g>
							<g>
								<g>
									<g>
										<path fill="#21111D" d="M1258.5,1781.2c0.3,0,0.5-0.1,0.7-0.4c0.2-0.4,0.1-0.9-0.2-1.1c-15.6-10.3-16.5-42.4-16.5-46.7
											c6.5-3.8,86.8-50.3,118.8-62.3c0.4-0.2,0.6-0.6,0.5-1.1c-0.2-0.4-0.6-0.6-1.1-0.5c-33.3,12.5-118.6,62.2-119.4,62.7
											l-0.4,0.2l0,0.5c0,1.5-0.1,37.1,17.3,48.5C1258.1,1781.2,1258.3,1781.2,1258.5,1781.2z"/>
									</g>
								</g>
							</g>
						</g>
					</g>
				</g>
			</g>
			<g>
				<g>
					<g>
						<g>
							<g>
								<g>
									<g>
										<g>
											<path fill="#21111D" d="M1106.5,1680.1c0.3,0,0.5-0.1,0.7-0.3c0.1-0.1,3.3-4.3,13.9-4.1c0.5,0,0.8-0.4,0.8-0.8
												c0-0.5-0.4-0.8-0.8-0.8c-11.6-0.1-15.1,4.6-15.2,4.8c-0.3,0.4-0.2,0.9,0.2,1.1
												C1106.1,1680.1,1106.3,1680.1,1106.5,1680.1z"/>
										</g>
									</g>
								</g>
							</g>
						</g>
					</g>
				</g>
				<g>
					<g>
						<g>
							<g>
								<g>
									<g>
										<g>
											<path fill="#21111D" d="M1111.7,1684.2c0.2,0,0.4-0.1,0.6-0.2c0.1-0.1,3.9-3.7,14.3-2.1c0.4,0.1,0.9-0.2,0.9-0.7
												c0.1-0.4-0.2-0.9-0.7-0.9c-11.4-1.8-15.6,2.4-15.8,2.6c-0.3,0.3-0.3,0.8,0,1.2
												C1111.3,1684.1,1111.5,1684.2,1111.7,1684.2z"/>
										</g>
									</g>
								</g>
							</g>
						</g>
					</g>
				</g>
			</g>
		</g>
		<g>
			<g>
				<g>
					<g>
						<g>
							<g>
								<path fill="#49263E" d="M1282.3,1440.6c0,0-4.9,43.7-11.4,44.1c-6.5,0.4,4.5,51.6,21.8,26.5c6.1-8.8,5.8-66.2-8.7-78.5
									C1269.6,1420.4,1282.3,1440.6,1282.3,1440.6z"/>
							</g>
						</g>
					</g>
				</g>
			</g>
			<g>
				<g>
					<g>
						<g>
							<g>
								<g>
									<path fill="#FE9F73" d="M1284.6,1429.6c0,0,6,41.3,0.6,48.6c0,0-2.6,3.9-9.1,4.1l0.5,24.2l-29.2-3.3l-1-69
										c0,0,8.3-17.1,8.3-16.3C1254.9,1418.6,1284.6,1429.6,1284.6,1429.6z"/>
								</g>
							</g>
						</g>
					</g>
				</g>
			</g>
			<g>
				<g>
					<g>
						<g>
							<g>
								<g>
									<path fill="#F07162" d="M1275.8,1464c-0.1,0-0.2-0.1-0.2-0.2c0-0.1,0-0.3,0.1-0.3c1.2-0.4,1.9-2.5,2.1-3.2
										c-1.7-1.3-2.8-2.9-3.2-4.9c-0.6-3.3,0.8-6.3,0.9-6.4c0.1-0.1,0.2-0.1,0.3-0.1c0.1,0.1,0.1,0.2,0,0.4c0,0-1.4,2.9-0.8,6
										c0.4,1.9,1.4,3.5,3.1,4.7l0.2,0.1l-0.1,0.2C1278.2,1460.5,1277.4,1463.5,1275.8,1464C1275.8,1464,1275.8,1464,1275.8,1464z
										"/>
								</g>
							</g>
						</g>
					</g>
				</g>
			</g>
			<g>
				<g>
					<g>
						<g>
							<g>
								<g>
									<path fill="#F07162" d="M1276.3,1490.6l-0.1-8.2c0,0-14-0.6-22.6-5.9C1253.6,1476.4,1265.3,1487.4,1276.3,1490.6z"/>
								</g>
							</g>
						</g>
					</g>
				</g>
			</g>
			<g>
				<g>
					<g>
						<g>
							<g>
								<g>
									<path fill="#49263E" d="M1256.5,1450.4c-0.1,0-0.3,0-0.4-0.1c-0.2-0.2-0.2-0.5,0-0.7c0.1-0.1,6.7-7.1,13-2.2
										c0.2,0.2,0.3,0.5,0.1,0.7c-0.2,0.2-0.5,0.3-0.7,0.1c-5.5-4.3-11.3,1.8-11.6,2.1C1256.8,1450.3,1256.6,1450.4,1256.5,1450.4
										z"/>
								</g>
							</g>
						</g>
					</g>
				</g>
			</g>
			<g>
				<g>
					<g>
						<g>
							<g>
								<g>
									<path fill="#49263E" d="M1278.2,1449c-0.1,0-0.3-0.1-0.4-0.2c-0.2-0.2-0.2-0.6,0-0.7c0.2-0.2,4.8-4.3,7.8-1.7
										c0.2,0.2,0.3,0.5,0.1,0.7c-0.2,0.2-0.5,0.3-0.7,0.1c-2.3-1.9-6.4,1.7-6.5,1.7C1278.4,1448.9,1278.3,1449,1278.2,1449z"/>
								</g>
							</g>
						</g>
					</g>
				</g>
			</g>
			<g>
				<g>
					<g>
						<g>
							<g>
								<g>
									<circle cx="1265.6" cy="1453.2" r="1.5"/>
								</g>
							</g>
						</g>
					</g>
				</g>
			</g>
			<g>
				<g>
					<g>
						<g>
							<g>
								<g>
									<circle cx="1282.8" cy="1453" r="1.5"/>
								</g>
							</g>
						</g>
					</g>
				</g>
			</g>
			<g>
				<g>
					<g>
						<g>
							<g>
								<g>
									<path fill="#FBFDFC" d="M1268.5,1466.5c0.2,0,10.4,1.1,10.4,1.1s-1.8,4-5.6,3.6C1269.5,1470.8,1268.5,1466.5,1268.5,1466.5
										z"/>
								</g>
							</g>
						</g>
					</g>
				</g>
			</g>
			<g>
				<g>
					<g>
						<g>
							<g>
								<path fill="#FE9F73" d="M1272,1430.4l-7.1-9.8c0,0,11.4,7.1,10.4,7.4C1274.4,1428.3,1272,1430.4,1272,1430.4z"/>
							</g>
						</g>
					</g>
				</g>
			</g>
			<g>
				<g>
					<g>
						<g>
							<g>
								<path fill="#49263E" d="M1250.8,1425.8c0,0,2,15.4,38.9,18.5c0,0,8.6-22.8-18.2-30.4c-26.8-7.6-29.2,12.9-28.7,12.7
									S1250.8,1425.8,1250.8,1425.8z"/>
							</g>
						</g>
					</g>
				</g>
			</g>
			<g>
				<g>
					<g>
						<g>
							<g>
								<path fill="#49263E" d="M1256.3,1434.4c0,0-6.8,10.1-10,17.4c0,0,12.3,64.5-12.5,60.8l-4.4-0.1c-21.9-0.3-6.8-47.8-6.4-73
									c0.2-15.8,19.4-31.8,31.9-22.2C1267.4,1427,1256.3,1434.4,1256.3,1434.4z"/>
							</g>
						</g>
					</g>
				</g>
			</g>
			<g>
				<g>
					<g>
						<g>
							<g>
								<g>
									<g>
										<circle fill="#FE9F73" cx="1244.4" cy="1459.8" r="8.2"/>
									</g>
								</g>
							</g>
						</g>
					</g>
				</g>
				<g>
					<g>
						<g>
							<g>
								<g>
									<g>
										<path fill="#F07162" d="M1243.9,1464.9c-1.7,0-2.9-1.3-3.3-2.5c-0.5-1.5,0-3,1.3-3.8c1.8-1.1,3.4-0.5,4.3,0
											c-0.4-0.9-0.9-1.5-1.6-1.9c-1.6-0.9-3.6-0.2-3.6-0.2c-0.1,0-0.3,0-0.3-0.2c0-0.1,0-0.3,0.2-0.3c0.1,0,2.2-0.8,4,0.2
											c1.1,0.6,1.8,1.6,2.2,3l0.2,0.9l-0.7-0.7c-0.1-0.1-2.1-1.9-4.3-0.5c-1.3,0.8-1.3,2.2-1,3.2c0.3,1,1.2,2.2,2.8,2.2
											c0.1,0,0.3,0.1,0.3,0.3C1244.2,1464.8,1244.1,1464.9,1243.9,1464.9C1243.9,1464.9,1243.9,1464.9,1243.9,1464.9z"/>
									</g>
								</g>
							</g>
						</g>
					</g>
				</g>
			</g>
			<g>
				<g>
					<g>
						<g>
							<path fill="#49263E" d="M1286.3,1422.6c0,0,12.8,13.5,9.8,52.3l-8.8-38.3L1286.3,1422.6z"/>
						</g>
					</g>
				</g>
			</g>
		</g>
		<g>
			<g>
				<g>
					<g>
						<path fill="#7FC6A6" d="M1277.7,1574.7l-17.8-74.6h-48.4c-5.1,0-12.2,3.4-12.5,3.5c-19.4,10.3-72.9,69.2-70.2,106.3
							c2.4,33.7,50.9,27,99.2,34.8l10.7-44.7l-17.5-4.7L1277.7,1574.7z"/>
					</g>
				</g>
			</g>
			<g>
				<g>
					<g>
						<path fill="#7FC6A6" d="M1261.7,1585.8v-85.6h48.4c5.1,0,12.2,3.4,12.5,3.5c19.4,10.3,79.6,71.1,76.9,108.2
							c-2.4,33.7-59.1,32.3-85.7,40.5L1299,1599l1.3-2.7L1261.7,1585.8z"/>
					</g>
				</g>
			</g>
			<g>
				<g>
					<g>
						<g>
							<g>
								<g>
									<path fill="#7FC6A6" d="M1340.2,1597.4l-0.6,93.4c0,0-84.5,15.4-159.8-4.6c-1.8-0.5,3.5-77.2,3.5-77.2s0-14.9,7.8-19.5
										c7.8-4.6,71.8-33,73.4-33C1266.1,1556.6,1340.2,1597.4,1340.2,1597.4z"/>
								</g>
							</g>
						</g>
					</g>
				</g>
			</g>
			<g>
				<g>
					<g>
						<g>
							<g>
								<g>
									<path fill="#21111D" d="M1259.1,1526.1c0.5,0,0.9-0.4,0.9-0.9c0-0.5-0.4-0.9-0.9-1c-27.8-1.7-36.8-20.8-36.9-21
										c-0.2-0.5-0.8-0.7-1.2-0.4c-0.5,0.2-0.7,0.8-0.4,1.2C1220.7,1504.3,1230.2,1524.3,1259.1,1526.1
										C1259.1,1526.1,1259.1,1526.1,1259.1,1526.1z"/>
								</g>
							</g>
						</g>
					</g>
				</g>
			</g>
			<g>
				<g>
					<g>
						<g>
							<g>
								<g>
									<path fill="#FE9F73" d="M1289.7,1500.1h-61.2c0,0,11.1,19.2,32.2,19.1C1270.4,1519.2,1280.8,1515.6,1289.7,1500.1z"/>
								</g>
							</g>
						</g>
					</g>
				</g>
			</g>
			<g>
				<g>
					<g>
						<g>
							<g>
								<g>
									<g>
										<path fill="#F78C63" d="M1252,1623.6c-3.9-3.9-0.3-8.9-0.3-8.9c-1.4-6,0.1-8.6,0.1-8.6s16.3,4.8,25.6,8.3
											c5.2-0.8,7.1-3.3,7.1-3.3l0.1,0.2c0.1-4.5,0.2-10.2,0.2-10.8c0-1.1,1.7-2.8,4.4,0.6c2.7,3.4,7.9,12.6,7.9,12.6l13.5-7.9
											l11,38c0,0-32.8,4.6-37.9,5c-5,0.4-22.6-3.8-27.9-8.1c-5.2-4.3-4.1-8.2-4.1-8.2C1248.1,1627.8,1252,1623.6,1252,1623.6z"
											/>
									</g>
								</g>
							</g>
						</g>
					</g>
				</g>
				<g>
					<g>
						<g>
							<g>
								<g>
									<g>
										<path fill="#FD7583" d="M1287.6,1598.4v11.8c0,0-3.5,5.1-10.1,4.2l-5.1-1.9l4-17.1L1287.6,1598.4z"/>
									</g>
								</g>
							</g>
						</g>
					</g>
				</g>
				<g>
					<g>
						<g>
							<g>
								<g>
									<g>
										<g>
											<path fill="#F07162" d="M1262.8,1620.5c0.3,0,0.5-0.2,0.6-0.4c0.1-0.3-0.1-0.7-0.4-0.8c-4.5-1.5-10.9-5.1-11-5.2
												c-0.3-0.2-0.7-0.1-0.8,0.2c-0.2,0.3-0.1,0.7,0.2,0.8c0.3,0.2,6.6,3.8,11.2,5.3
												C1262.7,1620.5,1262.8,1620.5,1262.8,1620.5z"/>
										</g>
									</g>
								</g>
							</g>
						</g>
					</g>
				</g>
				<g>
					<g>
						<g>
							<g>
								<g>
									<g>
										<g>
											<path fill="#F07162" d="M1262.8,1628.2c0.3,0,0.5-0.2,0.6-0.5c0.1-0.3-0.2-0.6-0.5-0.7c-5.6-1-10.6-3.9-10.6-3.9
												c-0.3-0.2-0.7-0.1-0.8,0.2c-0.2,0.3-0.1,0.7,0.2,0.8c0.2,0.1,5.2,3,11,4.1C1262.8,1628.2,1262.8,1628.2,1262.8,1628.2z"
												/>
										</g>
									</g>
								</g>
							</g>
						</g>
					</g>
				</g>
				<g>
					<g>
						<g>
							<g>
								<g>
									<g>
										<g>
											<path fill="#F07162" d="M1261.5,1637c0.3,0,0.5-0.2,0.6-0.5c0.1-0.3-0.1-0.7-0.5-0.7c-4.8-1-9.2-3.8-9.3-3.9
												c-0.3-0.2-0.7-0.1-0.8,0.2c-0.2,0.3-0.1,0.7,0.2,0.8c0.2,0.1,4.6,2.9,9.7,4C1261.4,1637,1261.5,1637,1261.5,1637z"/>
										</g>
									</g>
								</g>
							</g>
						</g>
					</g>
				</g>
			</g>
			<g>
				<g>
					<g>
						<g>
							<path fill="#4CB7D8" d="M1301.1,1606.4l18.6-4.6c0,0,10.5,26,10.5,26.9s-5.3,23.8-5.9,23.7c-0.7-0.1-6.6-6.3-6.6-6.3
								L1301.1,1606.4z"/>
						</g>
					</g>
				</g>
			</g>
			<g>
				<g>
					<g>
						<g>
							<path fill="#21111D" d="M1335.3,1589.4l9.2-1.5c0.6-0.1,1-0.7,0.9-1.3c-0.1-0.6-0.7-1-1.3-0.9l-7.8,1.2l-17.3-26.6
								c-0.3-0.5-1-0.7-1.5-0.3c-0.5,0.3-0.7,1-0.3,1.5L1335.3,1589.4z"/>
						</g>
					</g>
				</g>
			</g>
			<g>
				<g>
					<g>
						<g>
							<g>
								<g>
									<g>
										<path fill="#21111D" d="M1331.9,1524.5c-0.3,0-0.6-0.1-0.7-0.4c-6.9-9.9-12.8-9.9-12.7-9.9c0,0,0,0,0,0
											c-0.5,0-0.9-0.4-0.9-0.9c0-0.5,0.4-0.9,0.9-0.9c0,0,0,0,0,0c0.3,0,6.9,0.1,14.3,10.7c0.3,0.4,0.2,1-0.2,1.3
											C1332.2,1524.4,1332.1,1524.5,1331.9,1524.5z"/>
									</g>
								</g>
							</g>
						</g>
					</g>
				</g>
				<g>
					<g>
						<g>
							<g>
								<g>
									<g>
										<path fill="#21111D" d="M1329.9,1533.8c-0.3,0-0.7-0.2-0.8-0.5c-5.3-10.6-11.1-11.7-11.2-11.7c-0.5-0.1-0.8-0.5-0.8-1
											c0.1-0.5,0.5-0.8,1-0.8c0.3,0,6.8,1.1,12.5,12.7c0.2,0.5,0,1-0.4,1.2C1330.2,1533.7,1330.1,1533.8,1329.9,1533.8z"/>
									</g>
								</g>
							</g>
						</g>
					</g>
				</g>
			</g>
			<g>
				<g>
					<g>
						<g>
							<g>
								<g>
									<g>
										<g>
											<path fill="#F07162" d="M1278.5,1608c-0.3,0.1-0.5-0.1-0.7-0.3c-0.2-0.3-0.1-0.7,0.2-0.8c4.1-2.3,9.6-7.3,9.7-7.3
												c0.3-0.2,0.6-0.2,0.9,0c0.2,0.3,0.2,0.6,0,0.9c-0.2,0.2-5.7,5.1-9.9,7.5C1278.6,1608,1278.5,1608,1278.5,1608z"/>
										</g>
									</g>
								</g>
							</g>
						</g>
					</g>
				</g>
				<g>
					<g>
						<g>
							<g>
								<g>
									<g>
										<g>
											<path fill="#F07162" d="M1280.1,1615.6c-0.3,0.1-0.6-0.1-0.7-0.4c-0.1-0.3,0-0.7,0.3-0.8c5.3-2.2,9.5-6,9.6-6
												c0.3-0.2,0.6-0.2,0.9,0c0.2,0.2,0.2,0.6,0,0.9c-0.2,0.2-4.4,4-9.9,6.3C1280.1,1615.5,1280.1,1615.5,1280.1,1615.6z"/>
										</g>
									</g>
								</g>
							</g>
						</g>
					</g>
				</g>
				<g>
					<g>
						<g>
							<g>
								<g>
									<g>
										<g>
											<path fill="#F07162" d="M1283.2,1623.9c-0.3,0.1-0.6-0.1-0.7-0.3c-0.1-0.3,0-0.7,0.3-0.8c4.5-2,8.2-5.7,8.3-5.7
												c0.2-0.2,0.6-0.2,0.9,0c0.2,0.2,0.2,0.6,0,0.9c-0.2,0.2-3.9,3.8-8.6,5.9C1283.3,1623.9,1283.2,1623.9,1283.2,1623.9z"/>
										</g>
									</g>
								</g>
							</g>
						</g>
					</g>
				</g>
			</g>
			<g>
				<g>
					<g>
						<g>
							<path fill="#21111D" d="M1200.1,1588.8l-9.3,0.5c-0.6,0-1.1-0.4-1.2-1.1s0.4-1.1,1.1-1.2l7.8-0.4l11.4-29.6
								c0.2-0.6,0.9-0.9,1.4-0.6c0.6,0.2,0.9,0.9,0.6,1.4L1200.1,1588.8z"/>
						</g>
					</g>
				</g>
			</g>
			<g>
				<g>
					<g>
						<path fill="#4CB7D8" d="M1238.8,1600.1l-9.6,45.9c0,0-19.7-16-19.7-17.8c0-1.7,6.2-23.1,6.9-23.5
							C1217.1,1604.3,1238.8,1600.1,1238.8,1600.1z"/>
					</g>
				</g>
			</g>
			<g>
				<g>
					<g>
						<g>
							<path fill="#21111D" d="M1229.9,1647.2l-1-0.1c-0.2,0-23.2-1.5-49.7-12.6c-0.6-0.2-0.8-0.9-0.6-1.4c0.2-0.6,0.9-0.8,1.4-0.6
								c23.1,9.7,43.4,12,48,12.4l8.2-43.2l-37.4-12.8c-0.6-0.2-0.9-0.8-0.7-1.4c0.2-0.6,0.8-0.9,1.4-0.7l39.2,13.4L1229.9,1647.2z"
								/>
						</g>
					</g>
				</g>
			</g>
			<g>
				<g>
					<g>
						<g>
							<path fill="#21111D" d="M1306,1647.2l1-0.1c0.2,0,23.2-1.5,49.7-12.6c0.6-0.2,0.8-0.9,0.6-1.4c-0.2-0.6-0.9-0.8-1.4-0.6
								c-23.1,9.7-43.4,12-48,12.4l-8.2-43.2l37.4-12.8c0.6-0.2,0.9-0.8,0.7-1.4c-0.2-0.6-0.8-0.9-1.4-0.7l-39.2,13.4L1306,1647.2z"
								/>
						</g>
					</g>
				</g>
			</g>
		</g>
		<g>
			<g>
				<path fill="#49263E" d="M1177.3,1696.6h176.1c3.5,0,6.3-2.8,6.3-6.3V1592c0-3.5-2.8-6.3-6.3-6.3h-176.1c-3.5,0-6.3,2.8-6.3,6.3
					v98.3C1171.1,1693.8,1173.9,1696.6,1177.3,1696.6z"/>
			</g>
		</g>
		<g>
			<g>
				<circle fill="#FFFFFF" cx="1263.5" cy="1631.8" r="7.5"/>
			</g>
		</g>
	</g>
	<g>
		<g>
			<g>
				<g>
					<path fill="#FFFFFF" d="M2245.9,1685.7c0,0-20.6,51.9-3.3,91.1l-396.3,3.3l-36.6-3.3l-32.2-20v-30.6l9-25.3l29.3-15.3H2245.9z"
						/>
				</g>
			</g>
		</g>
		<g>
			<g>
				<g>
					<g>
						<path fill="#FF424D" d="M1827.6,1785.2h428.2c2.8,0,5-2.3,5-5c0-2.8-2.3-5.1-5-5.1h-428.2c-25.8,0-46.9-19.5-46.9-43.5
							s21-43.5,46.9-43.5h428.2c2.8,0,5-2.3,5-5c0-2.8-2.3-5-5-5h-428.2c-31.4,0-57,24-57,53.6
							C1770.7,1761.2,1796.2,1785.2,1827.6,1785.2z"/>
					</g>
				</g>
			</g>
		</g>
		<g>
			<g>
				<g>
					<path fill="#AAC9F8" d="M2240.1,1732.8h-210.1c-0.6,0-1.1-0.5-1.1-1.1s0.5-1.1,1.1-1.1h210.1c0.6,0,1.1,0.5,1.1,1.1
						S2240.7,1732.8,2240.1,1732.8z"/>
				</g>
			</g>
		</g>
		<g>
			<g>
				<g>
					<path fill="#AAC9F8" d="M2000.3,1732.8h-204.2c-0.6,0-1.1-0.5-1.1-1.1s0.5-1.1,1.1-1.1h204.2c0.6,0,1.1,0.5,1.1,1.1
						S2000.9,1732.8,2000.3,1732.8z"/>
				</g>
			</g>
		</g>
		<g>
			<g>
				<g>
					<path fill="#AAC9F8" d="M1906.4,1752.9h-104.8c-0.6,0-1.1-0.5-1.1-1.1c0-0.6,0.5-1.1,1.1-1.1h104.8c0.6,0,1.1,0.5,1.1,1.1
						C1907.5,1752.4,1907,1752.9,1906.4,1752.9z"/>
				</g>
			</g>
		</g>
		<g>
			<g>
				<g>
					<path fill="#AAC9F8" d="M2240.1,1752.9h-318.3c-0.6,0-1.1-0.5-1.1-1.1c0-0.6,0.5-1.1,1.1-1.1h318.3c0.6,0,1.1,0.5,1.1,1.1
						C2241.2,1752.4,2240.7,1752.9,2240.1,1752.9z"/>
				</g>
			</g>
		</g>
		<g>
			<g>
				<g>
					<path fill="#FFFFFF" d="M1848.5,1585.7c0,0,19.1,48.1,3.1,84.6l367.8,3.1l33.9-3.1l29.9-18.5v-28.4l-8.3-23.5l-27.2-14.2
						H1848.5z"/>
				</g>
			</g>
		</g>
		<g>
			<g>
				<g>
					<g>
						<path fill="#258D8C" d="M2236.6,1678h-397.4c-2.6,0-4.7-2.1-4.7-4.7s2.1-4.7,4.7-4.7h397.4c24,0,43.5-18.1,43.5-40.4
							c0-22.3-19.5-40.4-43.5-40.4h-397.4c-2.6,0-4.7-2.1-4.7-4.7s2.1-4.7,4.7-4.7h397.4c29.2,0,52.9,22.3,52.9,49.7
							C2289.5,1655.7,2265.8,1678,2236.6,1678z"/>
					</g>
				</g>
			</g>
		</g>
		<g>
			<g>
				<g>
					<path fill="#AAC9F8" d="M2048.9,1629.4h-195c-0.6,0-1.1-0.5-1.1-1.1c0-0.6,0.5-1.1,1.1-1.1h195c0.6,0,1.1,0.5,1.1,1.1
						C2050,1628.9,2049.5,1629.4,2048.9,1629.4z"/>
				</g>
			</g>
		</g>
		<g>
			<g>
				<g>
					<path fill="#AAC9F8" d="M2265.8,1629.4h-189.5c-0.6,0-1.1-0.5-1.1-1.1c0-0.6,0.5-1.1,1.1-1.1h189.5c0.6,0,1.1,0.5,1.1,1.1
						C2267,1628.9,2266.5,1629.4,2265.8,1629.4z"/>
				</g>
			</g>
		</g>
		<g>
			<g>
				<g>
					<path fill="#AAC9F8" d="M2260.7,1648.1h-97.2c-0.6,0-1.1-0.5-1.1-1.1s0.5-1.1,1.1-1.1h97.2c0.6,0,1.1,0.5,1.1,1.1
						S2261.4,1648.1,2260.7,1648.1z"/>
				</g>
			</g>
		</g>
		<g>
			<g>
				<g>
					<path fill="#AAC9F8" d="M2260.7,1610.7h-406.9c-0.6,0-1.1-0.5-1.1-1.1c0-0.6,0.5-1.1,1.1-1.1h406.9c0.6,0,1.1,0.5,1.1,1.1
						C2261.9,1610.2,2261.4,1610.7,2260.7,1610.7z"/>
				</g>
			</g>
		</g>
		<g>
			<g>
				<g>
					<g>
						<path fill="#21111D" d="M2255.9,1786.4h-428.2c-32,0-58.1-24.5-58.1-54.7c0-30.2,26.1-54.7,58.1-54.7h428.2
							c3.4,0,6.2,2.8,6.2,6.2c0,3.4-2.8,6.2-6.2,6.2c-0.6,0-1.1-0.5-1.1-1.1c0-0.6,0.5-1.1,1.1-1.1c2.2,0,3.9-1.8,3.9-3.9
							c0-2.2-1.8-3.9-3.9-3.9h-428.2c-30.8,0-55.9,23.5-55.9,52.5s25.1,52.5,55.9,52.5h428.2c2.2,0,3.9-1.8,3.9-3.9
							s-1.8-3.9-3.9-3.9c-0.6,0-1.1-0.5-1.1-1.1c0-0.6,0.5-1.1,1.1-1.1c3.4,0,6.2,2.8,6.2,6.2
							C2262,1783.6,2259.3,1786.4,2255.9,1786.4z"/>
					</g>
				</g>
			</g>
		</g>
		<g>
			<g>
				<g>
					<g>
						<path fill="#21111D" d="M2236.6,1679.2h-397.4c-3.2,0-5.8-2.6-5.8-5.8s2.6-5.8,5.8-5.8c0.6,0,1.1,0.5,1.1,1.1
							c0,0.6-0.5,1.1-1.1,1.1c-2,0-3.6,1.6-3.6,3.6s1.6,3.6,3.6,3.6h397.4c28.5,0,51.8-21.8,51.8-48.6c0-26.8-23.2-48.6-51.8-48.6
							h-397.4c-2,0-3.6,1.6-3.6,3.6c0,2,1.6,3.6,3.6,3.6c0.6,0,1.1,0.5,1.1,1.1c0,0.6-0.5,1.1-1.1,1.1c-3.2,0-5.8-2.6-5.8-5.8
							c0-3.2,2.6-5.8,5.8-5.8h397.4c29.8,0,54,22.8,54,50.9C2290.6,1656.3,2266.4,1679.2,2236.6,1679.2z"/>
					</g>
				</g>
			</g>
		</g>
		<g>
			<g>
				<g>
					<path fill="#7FC6A6" d="M2188,1711.5c0,0,13.5,33.6,5.7,58.3l-11-16.9c0,0-7.5,9-12.1,16.9c0,0-8.4-55.2-24.6-58.3H2188z"/>
				</g>
			</g>
		</g>
		<g>
			<g>
				<g>
					<path fill="#4CB7D8" d="M2086.4,1647c0,0-13.5,33.6-5.7,58.3l11-16.9c0,0,7.5,9,12.1,16.9c0,0,8.4-55.2,24.6-58.3H2086.4z"/>
				</g>
			</g>
		</g>
		<g>
			<g>
				<g>
					<path fill="#AAC9F8" d="M2240.1,1712.6h-438.4c-0.6,0-1.1-0.5-1.1-1.1c0-0.6,0.5-1.1,1.1-1.1h438.4c0.6,0,1.1,0.5,1.1,1.1
						C2241.2,1712.1,2240.7,1712.6,2240.1,1712.6z"/>
				</g>
			</g>
		</g>
		<g>
			<g>
				<g>
					<path fill="#AAC9F8" d="M2149.3,1648.1h-295.4c-0.6,0-1.1-0.5-1.1-1.1s0.5-1.1,1.1-1.1h295.4c0.6,0,1.1,0.5,1.1,1.1
						S2149.9,1648.1,2149.3,1648.1z"/>
				</g>
			</g>
		</g>
	</g>
	<g>
		<g>
			<g>
				<g>
					<g>
						<g>
							<g>
								<polygon fill="#FE9F73" points="1917.6,1740.9 1936.9,1751.8 1960.1,1729 1960.7,1725.3 1955,1683.9 1910,1692.3 								
									"/>
							</g>
						</g>
					</g>
				</g>
			</g>
			<g>
				<g>
					<g>
						<g>
							<path fill="#3A1F33" d="M1950.7,1753l-62.1,8.5c-0.6,0-1,0-1.4-0.1c-6.1-1-4.7-5-4.7-5l27.2-22.5l0.2-2.8
								c0.3-4.5,5.5-6.7,9.9-4.3l11.4,6.2c0,0,26.9,0.4,29.5-7.6l2.4,19.5C1963.2,1744.9,1966,1750.8,1950.7,1753z"/>
						</g>
					</g>
				</g>
			</g>
		</g>
		<g>
			<g>
				<g>
					<g>
						<g>
							<g>
								<polygon fill="#FE9F73" points="1837.3,1743.6 1856.7,1754.5 1879.8,1731.7 1880.5,1728 1874.8,1686.6 1829.7,1695 								
									"/>
							</g>
						</g>
					</g>
				</g>
			</g>
			<g>
				<g>
					<g>
						<g>
							<path fill="#3A1F33" d="M1870.4,1755.7l-62.1,8.5c-0.6,0-1,0-1.4-0.1c-6.1-1-4.7-5-4.7-5l27.2-22.5l0.2-2.8
								c0.3-4.5,5.5-6.7,9.9-4.3l11.4,6.2c0,0,26.9,0.4,29.5-7.6l2.4,19.5C1882.9,1747.5,1885.7,1753.5,1870.4,1755.7z"/>
						</g>
					</g>
				</g>
			</g>
		</g>
		<g>
			<g>
				<g>
					<g>
						<g>
							<path fill="#49263E" d="M1989.6,1578.1c0,0,77.5,3.6,99-1.1c21.5-4.8,26.8-71.9,2.4-113.1c-24.4-41.1-109.9,85.2-109.9,85.2
								L1989.6,1578.1z"/>
						</g>
					</g>
				</g>
			</g>
			<g>
				<g>
					<g>
						<g>
							<g>
								<path fill="#3A1F33" d="M1941.7,1478.3c0,0-107.9,16.8-111,29.3c-3.1,12.5-12.1,145.5-5.4,202.3c0,0,41.1,2.8,60.8-1.9
									l5.6-130l33.1,0.6l72.9-102.1L1941.7,1478.3z"/>
							</g>
						</g>
					</g>
				</g>
			</g>
			<g>
				<g>
					<g>
						<g>
							<g>
								<path fill="#49263E" d="M1994.2,1486.1c0,0-83.5,23.6-86.7,36.1c-3.1,12.5-12,131.2-5.3,187.9c0,0,44.2,2.5,63.9-2.2
									l5.3-130.5l19.1,0.7l46.2-81.3L1994.2,1486.1z"/>
							</g>
						</g>
					</g>
				</g>
			</g>
			<g>
				<g>
					<g>
						<path fill="#FEBAC7" d="M2046,1327c0,0,36.9,0.6,45.5,5.7s47.9,69.8,56.4,97.3c0,0-22.2,19.4-50.8,20.2l-6.9-13l3.9,26.5
							l-74.9,22.2c-25.4,7.5-52.6,6.7-77.4-2.5l-7.8-2.9c0,0,0.1-126.1,22.6-139.4C1976.7,1329.3,2020.2,1323.1,2046,1327z"/>
					</g>
				</g>
			</g>
			<g>
				<g>
					<g>
						<g>
							<g>
								<path fill="#FE9F73" d="M1999.6,1265v35.7c0,0-0.5,12.1,10.1,13.6l-2,16.1c-0.7,6,2.8,11.7,8.6,13.5c2.8,0.9,6.2,1.5,10,1.5
									c12.1,0,18.6-9,19.6-13.6c1-4.5-2-26.1-2-26.1l0.4-10.6l-1.4-41.2L1999.6,1265z"/>
							</g>
						</g>
					</g>
				</g>
			</g>
			<g>
				<g>
					<g>
						<g>
							<g>
								<path fill="#21111D" d="M2028.7,1282.9c0.1,0,0.3,0,0.3-0.1c0.2-0.2,0.2-0.5,0-0.7c-0.1-0.1-7-7.1-13.3-2.1
									c-0.2,0.2-0.3,0.5-0.1,0.7c0.2,0.2,0.5,0.3,0.7,0.1c5.6-4.5,11.7,1.7,11.9,2C2028.4,1282.8,2028.6,1282.9,2028.7,1282.9z"/>
							</g>
						</g>
					</g>
				</g>
			</g>
			<g>
				<g>
					<g>
						<g>
							<g>
								<path fill="#21111D" d="M2008,1279.9c0.1,0,0.3-0.1,0.4-0.2c0.2-0.2,0.2-0.5-0.1-0.7c-0.2-0.2-5-4.3-8-1.7
									c-0.2,0.2-0.2,0.5-0.1,0.7c0.2,0.2,0.5,0.2,0.7,0.1c2.4-2,6.7,1.6,6.7,1.7C2007.7,1279.8,2007.9,1279.9,2008,1279.9z"/>
							</g>
						</g>
					</g>
				</g>
			</g>
			<g>
				<g>
					<g>
						<g>
							<g>
								<circle cx="2020" cy="1284.9" r="1.5"/>
							</g>
						</g>
					</g>
				</g>
			</g>
			<g>
				<g>
					<g>
						<g>
							<g>
								<circle cx="2004" cy="1283.4" r="1.5"/>
							</g>
						</g>
					</g>
				</g>
			</g>
			<g>
				<g>
					<g>
						<g>
							<g>
								<path fill="#21111D" d="M2041.4,1255.9l-8.4,11.9c0,0-25.5,9.9-38.6-1.8c-13.1-11.7-9-17.4-5.2-23.2
									c1.9-2.9,10.9-8.8,22-3.9c6,2.7,10.5-5.3,17.5-1.3c7,4,15.3,11,14.4,13.7C2042.2,1254.1,2041.4,1255.9,2041.4,1255.9z"/>
							</g>
						</g>
					</g>
				</g>
			</g>
			<g>
				<g>
					<g>
						<g>
							<g>
								<path fill="#21111D" d="M2040.9,1250.9c0,0,11.6-0.6,14.8,10.6s-1.1,17-1.2,20.3c-0.1,3.3,2.1,25.8-13.6,24.1l-4.3-37.1
									l5.5-14.8L2040.9,1250.9z"/>
							</g>
						</g>
					</g>
				</g>
			</g>
			<g>
				<g>
					<g>
						<g>
							<g>
								<circle fill="#FE9F73" cx="2040" cy="1284.4" r="9"/>
							</g>
						</g>
					</g>
				</g>
			</g>
			<g>
				<g>
					<g>
						<g>
							<g>
								<path fill="#F07162" d="M2040.7,1289.9c1.9,0,3.1-1.4,3.5-2.8c0.5-1.7-0.1-3.3-1.4-4.1c-2-1.2-3.8-0.4-4.8,0.2
									c0.4-1,1-1.8,1.8-2.2c1.8-1,4-0.3,4-0.3c0.1,0,0.3,0,0.3-0.2c0-0.1,0-0.3-0.2-0.3c-0.1,0-2.4-0.8-4.4,0.3
									c-1.1,0.6-1.9,1.7-2.3,3.3l-0.2,0.9l0.6-0.6c0.1-0.1,2.2-2.2,4.8-0.6c1.4,0.9,1.5,2.5,1.2,3.6c-0.3,1.1-1.3,2.5-3.1,2.5
									c0,0,0,0-0.1,0c-0.1,0-0.2,0.1-0.3,0.2C2040.4,1289.8,2040.5,1289.9,2040.7,1289.9
									C2040.7,1289.9,2040.7,1289.9,2040.7,1289.9z"/>
							</g>
						</g>
					</g>
				</g>
			</g>
			<g>
				<g>
					<g>
						<g>
							<g>
								<path fill="#F07162" d="M2034.1,1304c0,0-0.7,20.2-25.9,22.1l1.5-11.9C2009.6,1314.3,2026,1317.6,2034.1,1304z"/>
							</g>
						</g>
					</g>
				</g>
			</g>
			<g>
				<g>
					<g>
						<g>
							<g>
								<path fill="#21111D" d="M2091.2,1438.8c31.2-4.9,49.7-23.5,49.9-23.7l-1.1-1.1c-0.2,0.2-18.3,18.5-49,23.3L2091.2,1438.8z"
									/>
							</g>
						</g>
					</g>
				</g>
			</g>
			<g>
				<g>
					<g>
						<g>
							<g>
								<path fill="#21111D" d="M1939.5,1711.7c19.5,0,26.5-2.9,26.8-3.1l0.4-0.2l5.1-131.3l-8.1,3.8l0.6,1.4l5.8-2.7l-5,127.8
									c-2.1,0.7-12.2,3.7-36.2,2.5l-0.1,1.5C1932.9,1711.6,1936.4,1711.7,1939.5,1711.7z"/>
							</g>
						</g>
					</g>
				</g>
			</g>
			<g>
				<g>
					<g>
						<g>
							<g>
								<path fill="#21111D" d="M1957.8,1683.4c2.1-8,2.7-86.5,2.7-89.8l-1.5,0c0,0.8-0.6,81.6-2.7,89.4L1957.8,1683.4z"/>
							</g>
						</g>
					</g>
				</g>
			</g>
			<g>
				<g>
					<g>
						<g>
							<g>
								<path fill="#21111D" d="M1857.9,1712.2c16.7,0,28.9-2.9,28.9-2.9l4.8-131.3l-6.2,4.3l0.9,1.2l3.6-2.9l-4.7,127.6
									c-2.6,0.6-13.7,2.8-28.9,2.6l0,1.5C1856.9,1712.2,1857.4,1712.2,1857.9,1712.2z"/>
							</g>
						</g>
					</g>
				</g>
			</g>
			<g>
				<g>
					<g>
						<g>
							<g>
								<path fill="#21111D" d="M1878.9,1686.3c2.1-12.1,0.1-94.3,0-97.8l-1.5,0c0,0.9,2.1,85.6,0,97.6L1878.9,1686.3z"/>
							</g>
						</g>
					</g>
				</g>
			</g>
			<g>
				<g>
					<g>
						<g>
							<g>
								<path fill="#FE9F73" d="M1953.4,1492.6l8.5-13.3h0c4.7-7.6,12.3-17.6,20.2-18.5c12.9-1.4,91.6-4.7,116.6-7.8
									c0,0-1.7-3-1.7-3c0.3,0.1,20.4-3.4,20.4-3.4l13-6.1l11.6-5c3.2,12.5,12,33.1,3,47.5c-16.7,26.5-144.7,13.5-156.1,10
									l-10.5,11.3l-2.1,3.3c-1,1.6-3.1,2-4.6,1c-1.6-1-2-3.1-1-4.6l-0.9,1.4c-1,1.6-3.1,2-4.6,1l0,0c-1.6-1-2-3.1-1-4.6
									c-1,1.6-3.1,2-4.6,1c-1.6-1-2-3.1-1-4.6l0.9-1.4c-1,1.6-3.1,2-4.6,1h0c-0.1,0-0.1-0.1-0.2-0.1c0,0,0,0,0,0
									c0,0-0.1,0-0.1-0.1c0,0,0,0,0,0c0,0,0,0,0,0c-0.2-0.2-0.4-0.4-0.5-0.6C1952.2,1494.6,1953.4,1492.6,1953.4,1492.6z"/>
							</g>
						</g>
					</g>
				</g>
			</g>
			<g>
				<g>
					<g>
						<g>
							<g>
								<path fill="#21111D" d="M2096.7,1451.2l0.5,0c25.4-0.6,51-20.1,51.2-20.3l0.5-0.4l-16.1-35.7l-1.4,0.6l15.6,34.6
									c-3.6,2.6-26.5,18.9-49.4,19.7l-6.9-14.1l-1.4,0.7L2096.7,1451.2z"/>
							</g>
						</g>
					</g>
				</g>
			</g>
			<g>
				<g>
					<g>
						<g>
							<g>
								<path fill="#F07162" d="M2107.7,1465.5c0.1,0,0.3,0,0.4-0.1c0.2-0.2,0.3-0.5,0.1-0.7l-9.2-11.8c-0.2-0.2-0.5-0.3-0.7-0.1
									c-0.2,0.2-0.3,0.5-0.1,0.7l9.2,11.8C2107.5,1465.4,2107.6,1465.4,2107.7,1465.5z"/>
							</g>
						</g>
					</g>
				</g>
			</g>
			<g>
				<g>
					<g>
						<g>
							<g>
								<path fill="#F07162" d="M1958.1,1498.6c0.2,0,0.4,0,0.5-0.2l12-16.5c0.2-0.2,0.1-0.5-0.1-0.7c-0.2-0.2-0.5-0.1-0.7,0.1
									l-12,16.5c-0.2,0.2-0.1,0.5,0.1,0.7C1958,1498.5,1958,1498.6,1958.1,1498.6z"/>
							</g>
						</g>
					</g>
				</g>
			</g>
			<g>
				<g>
					<g>
						<g>
							<g>
								<path fill="#F07162" d="M1963.4,1503.4c0.2,0,0.4,0,0.5-0.2l11.4-17c0.2-0.2,0.1-0.5-0.1-0.7c-0.2-0.2-0.5-0.1-0.7,0.1
									l-11.4,17c-0.2,0.2-0.1,0.5,0.1,0.7C1963.3,1503.3,1963.3,1503.4,1963.4,1503.4z"/>
							</g>
						</g>
					</g>
				</g>
			</g>
			<g>
				<g>
					<g>
						<g>
							<g>
								<path fill="#F07162" d="M1969.7,1506.5c0.2,0,0.4,0,0.5-0.2l9.5-14.4c0.2-0.2,0.1-0.5-0.1-0.7c-0.2-0.2-0.5-0.1-0.7,0.1
									l-9.5,14.4c-0.2,0.2-0.1,0.5,0.1,0.7C1969.6,1506.4,1969.7,1506.4,1969.7,1506.5z"/>
							</g>
						</g>
					</g>
				</g>
			</g>
			<g>
				<g>
					<g>
						<g>
							<path fill="#21111D" d="M2022.8,1579.5c-38.2,0-61.3-2.6-61.7-2.6l0.2-1.5c0.5,0.1,52.3,5.8,129.6,0l0.1,1.5
								C2065.1,1578.8,2042,1579.5,2022.8,1579.5z"/>
						</g>
					</g>
				</g>
			</g>
			<g>
				<g>
					<g>
						<g>
							
								<rect x="1968.2" y="1377.3" transform="matrix(0.9995 3.157228e-002 -3.157228e-002 0.9995 45.4768 -61.4621)" fill="#21111D" width="1.5" height="64.1"/>
						</g>
					</g>
				</g>
			</g>
			<g>
				<g>
					<g>
						<g>
							
								<rect x="2044.6" y="1416" transform="matrix(0.3984 0.9172 -0.9172 0.3984 2551.9861 -1057.5334)" fill="#21111D" width="75.1" height="1.5"/>
						</g>
					</g>
				</g>
			</g>
			<g>
				<g>
					<g>
						<g>
							
								<rect x="2080.5" y="1442.7" transform="matrix(0.1595 0.9872 -0.9872 0.1595 3182.5178 -850.9741)" fill="#21111D" width="20.9" height="1.5"/>
						</g>
					</g>
				</g>
			</g>
			<g>
				<g>
					<g>
						<g>
							<g>
								<path fill="#F07162" d="M2013.2,1295.1c0.1,0,0.2-0.1,0.2-0.2c0-0.1,0-0.3-0.2-0.3l-5-1.7l1.6-11.9c0-0.1-0.1-0.3-0.2-0.3
									c-0.1,0-0.3,0.1-0.3,0.2l-1.6,12.3L2013.2,1295.1C2013.2,1295.1,2013.2,1295.1,2013.2,1295.1z"/>
							</g>
						</g>
					</g>
				</g>
			</g>
			<g>
				<g>
					<g>
						<g>
							<g>
								<path fill="#FBFDFC" d="M2017.1,1300c-0.2,0-10-0.3-10-0.3s1.2,4.1,4.9,4.1C2015.7,1303.9,2017.1,1300,2017.1,1300z"/>
							</g>
						</g>
					</g>
				</g>
			</g>
		</g>
		<g>
			<g>
				<g>
					<g>
						<g>
							<polygon fill="#FECC86" points="1807.5,1394.7 1927.3,1394.7 1969,1501.1 1849.3,1501.1 							"/>
						</g>
					</g>
				</g>
				<g>
					<g>
						<g>
							<polygon fill="#FFB357" points="1969,1501.1 1962.8,1501.1 1921,1394.7 1927.3,1394.7 							"/>
						</g>
					</g>
				</g>
				<g>
					<g>
						<g>
							
								<ellipse transform="matrix(0.9468 -0.3217 0.3217 0.9468 -365.3979 681.7327)" fill="#E2F2F1" cx="1880.1" cy="1446.5" rx="6" ry="9.3"/>
						</g>
					</g>
				</g>
			</g>
			<g>
				<g>
					<g>
						<path fill="#FFB357" d="M2008.6,1492.5h-44.7v8.6h44.7c2.4,0,4.3-1.9,4.3-4.3l0,0C2012.9,1494.4,2011,1492.5,2008.6,1492.5z"
							/>
					</g>
				</g>
			</g>
			<g>
				<g>
					<g>
						<rect x="1969" y="1495.5" fill="#FECC86" width="28.3" height="1.3"/>
					</g>
				</g>
			</g>
		</g>
		<g>
			<g>
				<rect x="1952.2" y="1501.1" fill="#49263E" width="52.7" height="18.8"/>
			</g>
		</g>
	</g>
	<g>
		<g>
			<rect x="337.1" y="1784.8" fill="#21111D" width="1973.5" height="6.1"/>
		</g>
	</g>
	<g>
		<g>
			<g>
				<g>
					<g>
						<g>
							<g>
								<g>
									<g>
										<g>
											<polygon fill="#FE9F73" points="656,1769.6 607.6,1770.3 606.9,1724.6 655.1,1718.6 											"/>
										</g>
									</g>
								</g>
							</g>
						</g>
					</g>
				</g>
			</g>
		</g>
		<g>
			<g>
				<g>
					<g>
						<g>
							<g>
								<path fill="#33192C" d="M705.7,1777.8h-98.8v-19.9c0,0,7.2-9.5,18.1-4.7c0,0,16.2,11.7,30.8-2.3l36.6,15.7
									C692.4,1766.7,705.7,1771.1,705.7,1777.8z"/>
							</g>
						</g>
					</g>
				</g>
			</g>
			<g>
				<g>
					<g>
						<g>
							<g>
								<path fill="#472A31" d="M606.9,1784.8H708c1.1,0,2-0.9,2-2v-3c0-1.1-0.9-2-2-2H606.9V1784.8z"/>
							</g>
						</g>
					</g>
				</g>
			</g>
			<g>
				<g>
					<g>
						<g>
							<g>
								<path fill="#D7E4F7" d="M666.7,1755.6c-3.3,5.2-10,15.6-14.2,22.2h-6.7c3.8-5.9,11.7-18.3,15.7-24.5L666.7,1755.6z"/>
							</g>
						</g>
					</g>
				</g>
			</g>
			<g>
				<g>
					<g>
						<g>
							<g>
								<path fill="#D7E4F7" d="M663.3,1777.8h-6.7c3.1-4.8,9.1-14.2,13.3-20.8l5.3,2.3C671.6,1764.8,666.6,1772.6,663.3,1777.8z"/>
							</g>
						</g>
					</g>
				</g>
			</g>
		</g>
		<g>
			<g>
				<g>
					<g>
						<g>
							<g>
								<g>
									<g>
										<g>
											<polygon fill="#FE9F73" points="572.7,1769.6 524.4,1770.3 523.7,1724.6 571.8,1718.6 											"/>
										</g>
									</g>
								</g>
							</g>
						</g>
					</g>
				</g>
			</g>
		</g>
		<g>
			<g>
				<g>
					<g>
						<g>
							<g>
								<g>
									<path fill="#33192C" d="M577.9,1374.7c1.6,47.1,8.6,231.4,23.2,352c1,7.9,7.7,13.9,15.7,13.9c8.9,0,21.2-1.1,34.9-5.3
										c6.6-2,11.2-8,11.3-14.9l6-366.9c0-0.9,0-1.8-0.2-2.7l-0.3-1.8c-1.5-10-11.9-16-21.3-12.4l-59.1,22.7
										C581.7,1361.8,577.6,1367.9,577.9,1374.7z"/>
								</g>
							</g>
						</g>
					</g>
				</g>
			</g>
		</g>
		<g>
			<g>
				<g>
					<g>
						<g>
							<g>
								<g>
									<path fill="#49263E" d="M512.9,1365.2c0,0-4,226.6,6.5,366.4c0.5,6.6,5.7,11.8,12.4,12.3c9.4,0.7,23.6,0.6,39.7-3.7
										c5.5-1.4,9.4-6.2,9.9-11.8l28-325l17.3-90.2L512.9,1365.2z"/>
								</g>
							</g>
						</g>
					</g>
				</g>
			</g>
		</g>
		<g>
			<g>
				<g>
					<g>
						<g>
							<g>
								<g>
									<path fill="#21111D" d="M520.2,1742.4L520.2,1742.4L520.2,1742.4z"/>
								</g>
							</g>
						</g>
					</g>
				</g>
			</g>
		</g>
		<g>
			<g>
				<g>
					<g>
						<g>
							<path fill="#FFB357" d="M494.9,1293.1c1,9.1,6.4,143.4,21.5,154.4c15.1,11.1,159.2,0.4,162.6-12.7s-16.2-153.4-16.2-153.4
								L494.9,1293.1z"/>
						</g>
					</g>
				</g>
			</g>
		</g>
		<g>
			<g>
				<g>
					<g>
						<g>
							<g>
								<g>
									<g>
										<path fill="#FFB357" d="M657.7,1229.8c1.9,0,79.1,36.4,79.1,36.4l-16.8,29.6l-43.6-11.1L657.7,1229.8z"/>
									</g>
								</g>
							</g>
						</g>
					</g>
				</g>
			</g>
		</g>
		<g>
			<g>
				<g>
					<g>
						<g>
							<g>
								<path fill="#FFB357" d="M549.1,1085.7c0,0-33.2-2.3-49.4,6.2c-24.2,12.6-18.3,89.8-18.3,89.8s20.5-10.3,21.9-13.9
									C504.5,1164.1,549.1,1085.7,549.1,1085.7z"/>
							</g>
						</g>
					</g>
				</g>
			</g>
		</g>
		<g>
			<g>
				<g>
					<g>
						<g>
							<g>
								<path fill="#FFB357" d="M516.7,1090.6c19-2,69-2.1,69-2.1s6.6,2,4.5,0.9c54.8,11.6,59.5,52.7,59.5,52.7l22.9,119l29.9,2.6
									c9.1,18.7,0.3,68,0.3,68L557,1343.1c0,0-31.5,4.1-56.9-30.8c-16.8-23.1-20.4-92.3-18.7-142.8
									C481.5,1169.5,487.1,1093.7,516.7,1090.6z"/>
							</g>
						</g>
					</g>
				</g>
			</g>
		</g>
		<g>
			<g>
				<g>
					<g>
						<g>
							<g>
								<g>
									<g>
										<path fill="#21111D" d="M559.7,1259.3c0.2,0.1,0.3,0.1,0.5,0.1c0.5-0.1,0.8-0.6,0.7-1.1c-0.1-0.7-13.1-65.6-18.2-106.3
											c-0.1-0.5-0.5-0.9-1-0.8c-0.5,0.1-0.9,0.5-0.8,1c5.1,40.8,18,105.8,18.2,106.5C559.2,1258.9,559.4,1259.2,559.7,1259.3z"
											/>
									</g>
								</g>
							</g>
						</g>
					</g>
				</g>
			</g>
		</g>
		<g>
			<g>
				<g>
					<g>
						<g>
							<g>
								<g>
									<g>
										<path fill="#21111D" d="M649.5,1260.8c-0.1,0.1-0.3,0.2-0.6,0.2c-0.5,0-0.9-0.4-1-0.9c0-0.8-4.4-75.5-8.7-100.2
											c-0.1-0.5,0.2-1,0.7-1.1c0.5-0.1,1,0.2,1.1,0.7c4.4,24.8,8.7,99.7,8.8,100.4C649.8,1260.4,649.7,1260.6,649.5,1260.8z"/>
									</g>
								</g>
							</g>
						</g>
					</g>
				</g>
			</g>
		</g>
		<g>
			<g>
				<g>
					<g>
						<g>
							<g>
								<g>
									<g>
										<path fill="#21111D" d="M660.5,1244.6c0.4,0.2,0.9,0,1.1-0.4l6.5-10.3l-0.1-0.4l-17.6-91.6c-0.1-0.8-1.5-11.5-10.1-23.5
											c-8-11.2-24.2-25.7-55.3-31c-0.5-0.1-1,0.3-1.1,0.8c-0.1,0.5,0.3,1,0.8,1.1c30.5,5.1,46.2,19.2,54.1,30.1
											c8.5,11.8,9.8,22.6,9.9,22.7l0,0.1l17.6,91.3l-6.1,9.7c-0.3,0.4-0.1,1,0.3,1.3C660.4,1244.6,660.5,1244.6,660.5,1244.6z"
											/>
									</g>
								</g>
							</g>
						</g>
					</g>
				</g>
			</g>
		</g>
		<g>
			<g>
				<g>
					<g>
						<g>
							<g>
								<g>
									<g>
										<path fill="#21111D" d="M535.3,1252.4c0,0,0.1,0,0.1,0l24.3,6.4c0.5,0.1,1-0.2,1.1-0.7c0.1-0.5-0.2-1-0.7-1.1l-24.3-6.4
											c-0.5-0.1-1,0.2-1.1,0.7C534.7,1251.7,534.9,1252.2,535.3,1252.4z"/>
									</g>
								</g>
							</g>
						</g>
					</g>
				</g>
			</g>
		</g>
		<g>
			<g>
				<g>
					<g>
						<g>
							<g>
								<g>
									<g>
										<path fill="#21111D" d="M692.9,1246.1c0.5,0.2,1,0,1.2-0.5c0.2-0.5,0-1-0.5-1.2l-26.1-11.5c-0.5-0.2-1,0-1.2,0.5
											c-0.2,0.5,0,1,0.5,1.2L692.9,1246.1C692.9,1246.1,692.9,1246.1,692.9,1246.1z"/>
									</g>
								</g>
							</g>
						</g>
					</g>
				</g>
			</g>
		</g>
		<g>
			<g>
				<g>
					<g>
						<g>
							<g>
								<g>
									<g>
										<g>
											<g>
												<path fill="#7FC6A6" d="M801.1,1332.8l-85.8-5.6c-4.1-0.3-7.5-3.9-7-7.4l17.1-126.3c0.3-2.6,2.7-4.2,5.6-4l85.8,5.6
													c4.1,0.3,7.5,3.9,7,7.4l-17.1,126.3C806.4,1331.3,804,1332.9,801.1,1332.8z"/>
											</g>
										</g>
									</g>
								</g>
							</g>
						</g>
					</g>
				</g>
			</g>
			<g>
				<g>
					<g>
						<g>
							<g>
								<g>
									<g>
										<g>
											<g>
												<g>
													<g>
														<path fill="#FE9F73" d="M759.5,1306.3c0.1-2.4-2-4.4-4.3-4.6l-14.6-1c-0.5,0-0.8-0.3-1-0.8l0,0
															c-0.2-0.7,0.3-1.3,1-1.3l21.6-1.4c2.5-0.2,4-2.3,3.3-4.7l0,0c-0.6-2.4-3.2-4.2-5.7-4.1l-22,1.5c-0.5,0-1-0.3-1.1-0.8
															l-0.1-0.4c-0.2-0.6,0.2-1.2,0.8-1.3l23.6-6.3c2.3-0.6,3.9-3,3.3-5.3c-0.6-2.4-3-3.9-5.4-3.3l-23.8,6.4
															c-0.6,0.2-1.2-0.2-1.3-0.8l-0.3-1.1c-0.1-0.5,0.1-1.1,0.6-1.3l21.1-8.7c2.2-0.9,3.5-3.5,2.6-5.7
															c-0.9-2.3-3.5-3.5-5.8-2.5c0,0-32.5,11.5-37.8,12.9l9.8-4.6c7.2,6.7-0.9-2.5-6.8-3.6c-6.5-1.3-23.8,14.7-23.8,14.7
															c-0.8,1.4,0,4.5,1.3,6.8c4.8,25.6,5.8,29.5,7.7,36.3l26.7-8.1c7.7-2.3,15.8-3.3,23.8-2.7l2,0.1
															C757.3,1310.7,759.4,1308.8,759.5,1306.3z"/>
													</g>
												</g>
											</g>
										</g>
									</g>
								</g>
							</g>
						</g>
					</g>
				</g>
			</g>
			<g>
				<g>
					<g>
						<g>
							<g>
								<g>
									<g>
										<g>
											<g>
												<path fill="#FFFFFF" d="M778.9,1238.3c0,4.7-3.7,8.6-8.2,8.7c-4.5,0.2-8.1-3.5-8.1-8.1c0-4.7,3.7-8.6,8.2-8.7
													C775.3,1230,778.9,1233.6,778.9,1238.3z"/>
											</g>
										</g>
									</g>
								</g>
							</g>
						</g>
					</g>
				</g>
			</g>
			<g>
				<g>
					<g>
						<g>
							<g>
								<g>
									<g>
										<polygon fill="#7FC6A6" points="717.5,1261.7 716.3,1271.1 726.3,1267.7 726.2,1260.9 										"/>
									</g>
								</g>
							</g>
						</g>
					</g>
				</g>
			</g>
			<g>
				<g>
					<g>
						<g>
							<g>
								<g>
									<path fill="#21111D" d="M816.8,1194.1l-85.8-5.6c-3.4-0.2-6.1,1.8-6.5,4.8l-10.3,78.6l2.1-0.7l10-77.5
										c0.3-2.1,2.2-3.5,4.7-3.3l85.8,5.6c0.5,0,0.9-0.4,0.9-0.9C817.7,1194.5,817.3,1194.1,816.8,1194.1z"/>
								</g>
							</g>
						</g>
					</g>
				</g>
			</g>
		</g>
		<g>
			<g>
				<g>
					<g>
						<g>
							<g>
								<path fill="#FFB357" d="M702.3,1263.7c0,0,8.8,22.9,0.3,68l-8.5-32.4l-14.3-21.1L702.3,1263.7z"/>
							</g>
						</g>
					</g>
				</g>
			</g>
		</g>
		<g>
			<g>
				<g>
					<g>
						<g>
							<g>
								<g>
									<g>
										<path fill="#21111D" d="M528,1259c0.1,0,0.2,0.1,0.3,0.1c1.3,0,131,0.5,173.3,5.5c0.9,2.8,5.2,17.4,3,43.6
											c0,0.5,0.3,0.9,0.8,1c0.5,0,0.9-0.3,1-0.8c2.5-29.8-3.1-44.3-3.3-44.9l-0.2-0.5l-0.5-0.1c-41.8-5-172.7-5.6-174-5.6
											c-0.5,0-0.9,0.4-0.9,0.9C527.5,1258.6,527.7,1258.9,528,1259z"/>
									</g>
								</g>
							</g>
						</g>
					</g>
				</g>
			</g>
		</g>
		<g>
			<g>
				<g>
					<g>
						<g>
							<path fill="#21111D" d="M580.9,1340c53,0,117.8-6.8,121.8-7.3c0.6-0.1,1-0.6,0.9-1.2c-0.1-0.6-0.6-1-1.2-0.9
								c-1.4,0.2-144.9,15.3-180.9,1.2c-35.6-14-38.1-92.4-38.1-93.2c0-0.6-0.5-1.1-1.1-1c-0.6,0-1.1,0.5-1,1.1
								c0.1,3.3,2.5,80.7,39.5,95.1C532.6,1338.4,555.4,1340,580.9,1340z"/>
						</g>
					</g>
				</g>
			</g>
		</g>
		<g>
			<g>
				<g>
					<g>
						<g>
							<g>
								<g>
									<path fill="#21111D" d="M550.2,1003.9c0,0-12.6,6.5-6.3,31.9l4.8-2.5l-1.6-13.5L550.2,1003.9z"/>
								</g>
							</g>
						</g>
					</g>
				</g>
			</g>
			<g>
				<g>
					<g>
						<g>
							<g>
								<g>
									<g>
										<g>
											<g>
												<path fill="#FE9F73" d="M594.3,1019.7v37.2c0,0,0.5,12.6-10.4,14.2l2,16.8c0.8,6.2-2.9,12.2-8.9,14.1
													c-2.9,0.9-6.4,1.6-10.3,1.6c-12.5,0-19.3-9.4-20.3-14.2c-1-4.7,2.1-27.3,2.1-27.3l-0.4-11.1l1.4-42.9L594.3,1019.7z"/>
											</g>
										</g>
									</g>
								</g>
							</g>
						</g>
					</g>
				</g>
			</g>
			<g>
				<g>
					<g>
						<g>
							<g>
								<g>
									<g>
										<g>
											<g>
												<path fill="#21111D" d="M564.1,1038.3c-0.1,0-0.3,0-0.4-0.1c-0.2-0.2-0.2-0.5,0-0.7c0.1-0.1,7.2-7.4,13.8-2.1
													c0.2,0.2,0.3,0.5,0.1,0.7c-0.2,0.2-0.5,0.3-0.7,0.1c-5.8-4.7-12.1,1.8-12.4,2.1C564.4,1038.2,564.2,1038.3,564.1,1038.3
													z"/>
											</g>
										</g>
									</g>
								</g>
							</g>
						</g>
					</g>
				</g>
			</g>
			<g>
				<g>
					<g>
						<g>
							<g>
								<g>
									<g>
										<g>
											<g>
												<path fill="#21111D" d="M585.6,1035.1c-0.1,0-0.3-0.1-0.4-0.2c-0.2-0.2-0.2-0.5,0.1-0.7c0.2-0.2,5.2-4.5,8.3-1.7
													c0.2,0.2,0.2,0.5,0.1,0.7c-0.2,0.2-0.5,0.2-0.7,0.1c-2.5-2.1-6.9,1.7-7,1.7C585.8,1035.1,585.7,1035.1,585.6,1035.1z"/>
											</g>
										</g>
									</g>
								</g>
							</g>
						</g>
					</g>
				</g>
			</g>
			<g>
				<g>
					<g>
						<g>
							<g>
								<g>
									<g>
										<g>
											<g>
												<ellipse cx="573.1" cy="1040.4" rx="1.6" ry="1.6"/>
											</g>
										</g>
									</g>
								</g>
							</g>
						</g>
					</g>
				</g>
			</g>
			<g>
				<g>
					<g>
						<g>
							<g>
								<g>
									<g>
										<g>
											<g>
												<ellipse cx="589.7" cy="1038.8" rx="1.6" ry="1.6"/>
											</g>
										</g>
									</g>
								</g>
							</g>
						</g>
					</g>
				</g>
			</g>
			<g>
				<g>
					<g>
						<g>
							<g>
								<g>
									<g>
										<g>
											<g>
												<ellipse fill="#FE9F73" cx="547" cy="1040.9" rx="9.4" ry="9.4"/>
											</g>
										</g>
									</g>
								</g>
							</g>
						</g>
					</g>
				</g>
			</g>
			<g>
				<g>
					<g>
						<g>
							<g>
								<g>
									<g>
										<g>
											<g>
												<path fill="#F07162" d="M546.3,1046.7c-1.9,0-3.2-1.5-3.7-2.9c-0.5-1.7,0.1-3.4,1.5-4.3c2.1-1.3,4-0.5,4.9,0.2
													c-0.4-1.1-1-1.9-1.9-2.3c-1.8-1-4.1-0.3-4.2-0.3c-0.1,0-0.3,0-0.3-0.2c0-0.1,0-0.3,0.2-0.3c0.1,0,2.5-0.8,4.6,0.3
													c1.2,0.7,2,1.8,2.4,3.4l0.2,0.9l-0.7-0.7c-0.1-0.1-2.3-2.3-5-0.6c-1.5,0.9-1.6,2.6-1.3,3.7c0.3,1.2,1.4,2.6,3.2,2.6
													c0,0,0,0,0.1,0c0.1,0,0.3,0.1,0.3,0.3C546.6,1046.6,546.5,1046.7,546.3,1046.7C546.4,1046.7,546.3,1046.7,546.3,1046.7z
													"/>
											</g>
										</g>
									</g>
								</g>
							</g>
						</g>
					</g>
				</g>
			</g>
			<g>
				<g>
					<g>
						<g>
							<g>
								<g>
									<g>
										<g>
											<path fill="#21111D" d="M596.1,1051c0,0,3.4,25.2-13.2,26.1c-23.8,1.3-26.1-12.4-27.5-23.6l-0.2-23.1l0.8-6.7l0,0
												c1.7,1.9,2.7,4.3,2.9,6.9c0.5,5.5,1.7,20.4,3.1,21.1C563.8,1052.6,592.4,1048.5,596.1,1051z"/>
										</g>
									</g>
								</g>
							</g>
						</g>
					</g>
				</g>
			</g>
			<g>
				<g>
					<g>
						<g>
							<g>
								<g>
									<g>
										<g>
											<g>
												<path fill="#F07162" d="M580.1,1051c-0.1,0-0.2-0.1-0.2-0.2c0-0.1,0-0.3,0.2-0.3l5.2-1.7l-1.6-12.4
													c0-0.1,0.1-0.3,0.2-0.3c0.1,0,0.3,0.1,0.3,0.2l1.7,12.8L580.1,1051C580.2,1051,580.2,1051,580.1,1051z"/>
											</g>
										</g>
									</g>
								</g>
							</g>
						</g>
					</g>
				</g>
			</g>
			<g>
				<g>
					<g>
						<g>
							<g>
								<g>
									<g>
										<g>
											<g>
												<path fill="#FBFDFC" d="M576.1,1056.1c0.2,0,10.3-0.3,10.3-0.3s-1.3,4.2-5,4.3C577.6,1060.3,576.1,1056.1,576.1,1056.1z
													"/>
											</g>
										</g>
									</g>
								</g>
							</g>
						</g>
					</g>
				</g>
			</g>
			<g>
				<g>
					<g>
						<g>
							<g>
								<g>
									<path fill="#21111D" d="M555.8,1024.2l-4.7-4.3l-4.9,11.7c0,0,6,1,6.1,7.3c0.1,6.3-3.3,16,7.6,30.1c10.8,14-0.9-21-1-22.2
										C558.9,1045.5,555.8,1024.2,555.8,1024.2z"/>
								</g>
							</g>
						</g>
					</g>
				</g>
			</g>
			<g>
				<g>
					<g>
						<g>
							<g>
								<g>
									<path fill="#21111D" d="M550.2,1003.9c5-5,22.4-7.8,34.9-0.3l0,0c14.1,6.9,9.7,21,9.2,21.4l-0.2-0.1c0.1,0.3,0.1,0.7,0.2,1
										c0,0-0.6-0.9-1.9-2.3l-5.6-4.3c-3.1-1.8-7.3-3.3-12.7-3.6c-5.4-0.4-10.1-0.1-13.9,1.1c-1,3.2-1.8,9.5-0.7,22
										c1.8,19-6.5-4.1-9.5-12.9c-0.6,1.7-1.1,3.5-1.4,5.6C548.7,1031.6,540.1,1013.9,550.2,1003.9z"/>
								</g>
							</g>
						</g>
					</g>
				</g>
			</g>
			<g>
				<g>
					<g>
						<g>
							<g>
								<g>
									<path fill="#FE9F73" d="M594.3,1030.1c0,0,0.4-7.6,0-9.3c-0.4-1.7-17.4-6.5-26.7-5.2c-9.3,1.3,8.7,11.5,8.9,11.5
										C576.8,1027.1,594.3,1030.1,594.3,1030.1z"/>
								</g>
							</g>
						</g>
					</g>
				</g>
			</g>
			<g>
				<g>
					<g>
						<g>
							<g>
								<g>
									<polygon fill="#FE9F73" points="562,1017.6 553,1009.2 561.5,1021.4 									"/>
								</g>
							</g>
						</g>
					</g>
				</g>
			</g>
			<g>
				<g>
					<g>
						<g>
							<g>
								<g>
									<path fill="#21111D" d="M562,1001.1c0,0,1.8-18-8.2-14.1c-10,3.9-11.8,12.2-2.7,17.7C560.2,1010.2,562,1001.1,562,1001.1z"
										/>
								</g>
							</g>
						</g>
					</g>
				</g>
			</g>
		</g>
		<g>
			<g>
				<g>
					<g>
						<g>
							<path fill="#FFB357" d="M525,1124.3l17.7-29.7l31.2,9.4l12.6-13.4c0,0,2.7,12.4,2.6,13.4c-0.1,1-14.2,15.7-16.1,15.6
								C571.2,1119.4,525,1124.3,525,1124.3z"/>
						</g>
					</g>
				</g>
			</g>
		</g>
		<g>
			<g>
				<g>
					<g>
						<g>
							<path fill="#21111D" d="M527.5,1451.7c0.6,0,1-0.4,1.1-1c0-0.6-0.4-1.1-1-1.1c-15-1.1-17-13.8-20.4-34.9
								c-0.6-3.8-1.2-7.7-2-11.9c-5.1-28-7.3-95.8-7.3-96.5c0-0.6-0.5-1-1.1-1c0,0,0,0,0,0c-0.6,0-1.1,0.5-1,1.1
								c0,0.7,2.3,68.6,7.3,96.8c0.8,4.2,1.4,8.1,2,11.9C508.5,1436.4,510.8,1450.6,527.5,1451.7
								C527.4,1451.7,527.5,1451.7,527.5,1451.7z"/>
						</g>
					</g>
				</g>
			</g>
		</g>
		<g>
			<g>
				<g>
					<g>
						<g>
							<path fill="#FD7583" d="M584.6,1077.1l1.3,10.5c0,0-7.7,11.6-13,15.3c-10.5-7.3-26.7-17.4-26.7-17.4l0.9-13.3
								c-19.4-2.2-41.5,10-36.5,16.3c5.1,6.3,31.4,8.2,38.3,10.5c6.9,2.3,24.5,7.6,24.5,7.6c4.6-3.4,17-18,17-18l12.6,3.5
								C603.4,1079.3,584.6,1077.1,584.6,1077.1z"/>
						</g>
					</g>
				</g>
			</g>
		</g>
		<g>
			<g>
				<g>
					<g>
						<g>
							<g>
								<path fill="#49263E" d="M622.4,1777.8h-98.8v-19.9c0,0,7.2-9.5,18.1-4.7c0,0,16.2,11.7,30.8-2.3l36.6,15.7
									C609.1,1766.7,622.4,1771.1,622.4,1777.8z"/>
							</g>
						</g>
					</g>
				</g>
			</g>
			<g>
				<g>
					<g>
						<g>
							<g>
								<path fill="#683D46" d="M523.7,1784.8h101.1c1.1,0,2-0.9,2-2v-3c0-1.1-0.9-2-2-2H523.7V1784.8z"/>
							</g>
						</g>
					</g>
				</g>
			</g>
			<g>
				<g>
					<g>
						<g>
							<g>
								<path fill="#D7E4F7" d="M583.4,1755.6c-3.3,5.2-10,15.6-14.2,22.2h-6.7c3.8-5.9,11.7-18.3,15.7-24.5L583.4,1755.6z"/>
							</g>
						</g>
					</g>
				</g>
			</g>
			<g>
				<g>
					<g>
						<g>
							<g>
								<path fill="#D7E4F7" d="M580,1777.8h-6.7c3.1-4.8,9.1-14.2,13.3-20.8l5.3,2.3C588.3,1764.8,583.3,1772.6,580,1777.8z"/>
							</g>
						</g>
					</g>
				</g>
			</g>
		</g>
		<g>
			<g>
				<g>
					<path d="M573.5,1107.3c0.2,0,0.4-0.1,0.5-0.2l21.9-22.3c0.3-0.3,0.3-0.7,0-1c-0.3-0.3-0.7-0.3-1,0l-21.9,22.3
						c-0.3,0.3-0.3,0.7,0,1C573.2,1107.3,573.4,1107.3,573.5,1107.3z"/>
				</g>
			</g>
		</g>
	</g>
	<g>
		<g>
			<g>
				<g>
					<g>
						<g>
							<path fill="#FECC86" d="M1147.9,1294.5c0-59.2-48-107.1-107.1-107.1c-59.2,0-107.1,48-107.1,107.1
								c0,29.3,11.8,55.9,30.9,75.3l0,0c0,0,32.4,34.7,43.4,72.4c0,0,18.7,6.4,32.8,6.7c14.1-0.4,32.8-6.7,32.8-6.7
								c10.9-37.8,43.4-72.4,43.4-72.4l0,0C1136.1,1350.4,1147.9,1323.8,1147.9,1294.5z"/>
						</g>
					</g>
				</g>
				<path fill="#4CB7D8" d="M1005,1433.6v28.6c0,12.9,8,24,19.2,28.5c1.1,8.1,8.1,14.3,16.5,14.3c8.4,0,15.3-6.2,16.5-14.3
					c11.3-4.6,19.2-15.6,19.2-28.5v-28.6H1005z"/>
				<g opacity="0.3">
					<g>
						<path fill="#FECC86" d="M1147.9,1294.5c0-21.9-6.6-42.3-17.9-59.3c-31.3,77.2-81.3,129.1-153.3,149.2
							c9.1,11.9,21.1,29.8,28.3,49.2h71.4v0c12.8-34.3,40.5-63.9,40.5-63.9l0,0C1136.1,1350.4,1147.9,1323.8,1147.9,1294.5z"/>
					</g>
				</g>
			</g>
			<g>
				<g>
					<g>
						<path fill="#F99247" d="M1058.3,1434.1l-3.1-0.8c0.1-0.4,10.1-37.1,17-74.7c12-65.3,5.1-79.1-0.1-81.6
							c-5.3-2.5-9.5-2-12.4,1.3c-0.2,0.2-0.4,0.5-0.6,0.8c7.5,4.4,9.3,11.2,9.7,13.9c1.2,7.6-2.2,15.1-7.6,16.9
							c-1.3,0.4-3.8,0.6-5.9-2.6c-3.4-5.2-4.5-18.1-0.7-26.8c-3.7-1.5-8.2-2.3-13.3-2.3h-3.1c-5.1,0-9.6,0.8-13.3,2.3
							c3.8,8.6,2.8,21.6-0.7,26.8c-2.2,3.3-4.6,3.1-5.9,2.6c-5.4-1.7-8.7-9.3-7.6-16.9c0.4-2.7,2.2-9.5,9.7-13.9
							c-0.2-0.3-0.4-0.5-0.6-0.8c-2.9-3.4-7.1-3.8-12.4-1.3c-5.2,2.4-12.1,16.3-0.1,81.6c6.9,37.6,16.9,74.3,17,74.7l-3.1,0.8
							c-0.1-0.4-10.1-37.2-17.1-75c-9.6-52.1-9-79.9,1.9-85c8.4-4,13.4-1,16.2,2.1c0.4,0.4,0.7,0.9,1.1,1.4
							c3.7-1.6,8.6-2.6,14.9-2.6h3.1c6.3,0,11.1,1,14.9,2.6c0.3-0.5,0.7-1,1.1-1.4c2.7-3.2,7.7-6.1,16.2-2.1
							c10.8,5.1,11.4,32.9,1.9,85C1068.4,1396.8,1058.4,1433.7,1058.3,1434.1z M1022.1,1281.9c-4.5,2.6-7.4,6.6-8.2,11.6
							c-1,6.6,1.9,12.2,5.4,13.3c0.3,0.1,1.2,0.4,2.3-1.4C1024.6,1301,1025.4,1289.3,1022.1,1281.9z M1057.5,1281.9
							c-3.3,7.5-2.5,19.2,0.5,23.6c1.2,1.7,2,1.5,2.3,1.4c3.4-1.1,6.4-6.7,5.4-13.3C1064.9,1288.5,1062.1,1284.5,1057.5,1281.9z"/>
					</g>
				</g>
			</g>
			<g>
				<g>
					<g>
						<path fill="#21111D" d="M1004.5,1434.4c-0.9-2.4-1.2-3.3-2.1-5.3l-0.5-1.1c-13.4-31.2-37.7-57.5-38-57.7l-0.1-0.1
							c-20-20.3-31-47.2-31-75.7c0-59.5,48.4-107.9,107.9-107.9c36.5,0,70.3,18.3,90.3,48.9l-1.3,0.9c-19.7-30.2-53-48.2-89-48.2
							c-58.6,0-106.3,47.7-106.3,106.3c0,28.1,10.9,54.7,30.7,74.7l1,1l-0.1,0c4.7,5.2,25.4,29.2,37.3,57.2l0.5,1.1
							c0.9,2,1.3,2.9,2.1,5.4L1004.5,1434.4z"/>
					</g>
				</g>
			</g>
			<g>
				<g>
					<g>
						<path fill="#21111D" d="M966,1245l-1.5-0.4c0.1-0.3,8-26.6,34.6-36.5l0.6,1.5C973.8,1219.1,966,1244.8,966,1245z"/>
					</g>
				</g>
			</g>
			<g>
				<g>
					<g>
						<path fill="#21111D" d="M970.9,1254.5l-1.5-0.4c0.1-0.3,8-26.6,34.6-36.5l0.6,1.5C978.7,1228.7,971,1254.3,970.9,1254.5z"/>
					</g>
				</g>
			</g>
			<g>
				<g>
					<g>
						<path fill="#21111D" d="M1044.6,1493.8h-7.8c-18,0-32.6-14.6-32.6-32.6v-28.4h72.2v1.6h-70.6v26.8c0,17.1,13.9,31,31,31h7.8
							c8.2,0,15.9-3.2,21.8-8.9l1.1,1.1C1061.4,1490.5,1053.2,1493.8,1044.6,1493.8z"/>
					</g>
				</g>
			</g>
			<g>
				<g>
					<g>
						<path fill="#21111D" d="M1041.2,1505.9c-15.5,0-17.7-15-17.7-15.2l1.6-0.2c0.1,0.6,2.1,14.1,16.7,13.8l0,1.6
							C1041.6,1505.9,1041.4,1505.9,1041.2,1505.9z"/>
					</g>
				</g>
			</g>
			<g>
				<g>
					<g>
						<path fill="#21111D" d="M1114.2,1354.4l-0.9-1.3c14.1-10.5,16.4-28,16.4-28.2l1.6,0.2
							C1131.2,1325.3,1128.9,1343.5,1114.2,1354.4z"/>
					</g>
				</g>
			</g>
			<g>
				<g>
					<g>
						<path fill="#21111D" d="M1111.1,1346.8l-0.9-1.3c10.3-7.6,11.9-20.4,11.9-20.5l1.6,0.2
							C1123.6,1325.7,1122,1338.7,1111.1,1346.8z"/>
					</g>
				</g>
			</g>
			<g>
				<g>
					<g>
						<path fill="#21111D" d="M1001.8,1447.9l0-1.6c0.6,0,60.8-0.8,79.9-7.9l0.6,1.5C1062.9,1447.1,1004.2,1447.9,1001.8,1447.9z"/>
					</g>
				</g>
			</g>
			<g>
				<g>
					<g>
						<path fill="#21111D" d="M1001.8,1461.3l0-1.6c0.7,0,66-1.3,78.2-7.8l0.8,1.4C1068.1,1460,1004.5,1461.3,1001.8,1461.3z"/>
					</g>
				</g>
			</g>
			<g>
				<g>
					<g>
						<path fill="#21111D" d="M1005,1475.1l0-1.6c0.6,0,59.2-0.6,74.9-8.7l0.7,1.4C1064.6,1474.5,1007.5,1475.1,1005,1475.1z"/>
					</g>
				</g>
			</g>
		</g>
		<g>
			<g>
				<g>
					<g>
						<path fill="#FECC86" d="M906.4,1277.6c-0.1,0-0.1,0-0.2,0l-37.9-3.2c-1.3-0.1-2.3-1.3-2.2-2.6c0.1-1.3,1.3-2.3,2.6-2.2
							l37.9,3.2c1.3,0.1,2.3,1.3,2.2,2.6C908.6,1276.7,907.6,1277.6,906.4,1277.6z"/>
					</g>
				</g>
			</g>
		</g>
		<g>
			<g>
				<g>
					<g>
						<path fill="#FECC86" d="M926,1217.2c-0.5,0-0.9-0.1-1.3-0.4l-31.4-21.5c-1.1-0.7-1.4-2.2-0.6-3.3c0.7-1.1,2.2-1.4,3.3-0.6
							l31.4,21.5c1.1,0.7,1.4,2.2,0.6,3.3C927.5,1216.9,926.7,1217.2,926,1217.2z"/>
					</g>
				</g>
			</g>
		</g>
		<g>
			<g>
				<g>
					<g>
						<path fill="#FECC86" d="M982.7,1173.9c-0.9,0-1.8-0.6-2.2-1.5l-14.3-35.2c-0.5-1.2,0.1-2.6,1.3-3.1c1.2-0.5,2.6,0.1,3.1,1.3
							l14.3,35.2c0.5,1.2-0.1,2.6-1.3,3.1C983.3,1173.8,983,1173.9,982.7,1173.9z"/>
					</g>
				</g>
			</g>
		</g>
		<g>
			<g>
				<g>
					<g>
						<path fill="#FECC86" d="M1173.3,1284.5c-1.2,0-2.3-1-2.4-2.2c-0.1-1.3,0.9-2.4,2.2-2.5l38-2.5c1.3-0.1,2.4,0.9,2.5,2.2
							s-0.9,2.4-2.2,2.5l-38,2.5C1173.4,1284.5,1173.3,1284.5,1173.3,1284.5z"/>
					</g>
				</g>
			</g>
		</g>
		<g>
			<g>
				<g>
					<g>
						<path fill="#FECC86" d="M1154.8,1223.7c-0.8,0-1.5-0.4-2-1.1c-0.7-1.1-0.4-2.6,0.7-3.3l31.8-20.9c1.1-0.7,2.6-0.4,3.3,0.7
							c0.7,1.1,0.4,2.6-0.7,3.3l-31.8,20.9C1155.7,1223.6,1155.3,1223.7,1154.8,1223.7z"/>
					</g>
				</g>
			</g>
		</g>
		<g>
			<g>
				<g>
					<g>
						<path fill="#FECC86" d="M1106.2,1173.8c-0.3,0-0.6-0.1-0.9-0.2c-1.2-0.5-1.8-1.9-1.3-3.1l15-35c0.5-1.2,1.9-1.8,3.1-1.3
							c1.2,0.5,1.8,1.9,1.3,3.1l-15,35C1108.1,1173.2,1107.2,1173.8,1106.2,1173.8z"/>
					</g>
				</g>
			</g>
		</g>
		<g>
			<g>
				<g>
					<g>
						<path fill="#FECC86" d="M1045.1,1155.3C1045.1,1155.3,1045.1,1155.3,1045.1,1155.3c-1.4,0-2.4-1.1-2.4-2.4l0.6-38
							c0-1.3,1.1-2.3,2.4-2.3c0,0,0,0,0,0c1.3,0,2.4,1.1,2.3,2.4l-0.6,38C1047.5,1154.2,1046.4,1155.3,1045.1,1155.3z"/>
					</g>
				</g>
			</g>
		</g>
		<g opacity="0.5">
			<g>
				<g>
					
						<ellipse transform="matrix(0.8406 0.5417 -0.5417 0.8406 839.3743 -394.8994)" fill="#F3FFFE" cx="1090.6" cy="1228.6" rx="26.2" ry="12.5"/>
				</g>
			</g>
		</g>
	</g>
	<g>
		<g>
			<g>
				<g>
					<g>
						<path fill="#FFFFFF" d="M1079.5,496.3h181.7c4.5,0,8.2-3.7,8.2-8.2V382.4c0-4.5-3.7-8.2-8.2-8.2h-181.7
							c-4.5,0-8.2,3.7-8.2,8.2v105.8C1071.3,492.7,1075,496.3,1079.5,496.3z"/>
					</g>
				</g>
			</g>
		</g>
		<g>
			<g>
				<g>
					<g>
						<g>
							<path fill="#61A3C5" d="M1089.9,396.5h165.1c1.1,0,2.1-0.9,2.1-2.1s-0.9-2.1-2.1-2.1h-165.1c-1.1,0-2.1,0.9-2.1,2.1
								S1088.8,396.5,1089.9,396.5z"/>
						</g>
					</g>
				</g>
			</g>
		</g>
		<g>
			<g>
				<g>
					<g>
						<g>
							<path fill="#61A3C5" d="M1089.9,420h165.1c1.1,0,2.1-0.9,2.1-2.1c0-1.1-0.9-2.1-2.1-2.1h-165.1c-1.1,0-2.1,0.9-2.1,2.1
								C1087.9,419,1088.8,420,1089.9,420z"/>
						</g>
					</g>
				</g>
			</g>
		</g>
		<g>
			<g>
				<g>
					<g>
						<g>
							<path fill="#61A3C5" d="M1147.8,443.5h107.3c1.1,0,2.1-0.9,2.1-2.1c0-1.1-0.9-2.1-2.1-2.1h-107.3c-1.1,0-2.1,0.9-2.1,2.1
								C1145.7,442.5,1146.6,443.5,1147.8,443.5z"/>
						</g>
					</g>
				</g>
			</g>
		</g>
		<g>
			<g>
				<g>
					<g>
						<g>
							<path fill="#61A3C5" d="M1088.7,443.5h42.8c1.1,0,2.1-0.9,2.1-2.1c0-1.1-0.9-2.1-2.1-2.1h-42.8c-1.1,0-2.1,0.9-2.1,2.1
								C1086.6,442.5,1087.6,443.5,1088.7,443.5z"/>
						</g>
					</g>
				</g>
			</g>
		</g>
		<g>
			<g>
				<g>
					<g>
						<g>
							<path fill="#61A3C5" d="M1187.6,467h67.4c1.1,0,2.1-0.9,2.1-2.1s-0.9-2.1-2.1-2.1h-67.4c-1.1,0-2.1,0.9-2.1,2.1
								S1186.5,467,1187.6,467z"/>
						</g>
					</g>
				</g>
			</g>
		</g>
		<g>
			<g>
				<g>
					<g>
						<g>
							<path fill="#61A3C5" d="M1088.7,467h83.8c1.1,0,2.1-0.9,2.1-2.1s-0.9-2.1-2.1-2.1h-83.8c-1.1,0-2.1,0.9-2.1,2.1
								S1087.6,467,1088.7,467z"/>
						</g>
					</g>
				</g>
			</g>
		</g>
		<g>
			<g>
				<g>
					<g>
						<path fill="#FFFFFF" d="M1131.9,490.9c-0.2,0.8-32.1,42.3-32.3,41.1s3.7-44.6,3.7-44.6L1131.9,490.9z"/>
					</g>
				</g>
			</g>
		</g>
	</g>
	<g>
		<rect x="736.7" y="1736" fill="#21111D" width="318.7" height="2.5"/>
	</g>
	<g opacity="0.3">
		<g>
			<g>
				<path fill="#4CB7D8" d="M787.8,1585.6c9.1,6.3,19,10.9,29.3,13.9l3.5,26.3l18.2,0.9l18.2,0.9l6.1-25.9
					c10.6-1.9,20.9-5.6,30.5-10.9l21.1,16.1l13.5-12.2l13.5-12.2l-14-22.6c6.3-9.1,10.9-19,13.9-29.3l26.3-3.5l0.9-18.2l0.9-18.2
					l-25.9-6.1c-1.9-10.6-5.6-20.9-10.9-30.5l16.1-21.1l-12.2-13.5l-12.2-13.5l-22.6,14c-9.1-6.3-19-10.9-29.3-13.9l-3.5-26.3
					l-18.2-0.9l-18.2-0.9l-6.1,25.9c-10.6,1.9-20.9,5.6-30.5,10.9l-21.1-16.1l-13.5,12.2l-13.5,12.2l14,22.6
					c-6.3,9.1-10.9,19-13.9,29.3l-26.3,3.5l-0.9,18.2l-0.9,18.2l25.9,6.1c1.9,10.6,5.6,20.9,10.9,30.5l-16.1,21.1l12.2,13.5
					l12.2,13.5L787.8,1585.6z M799,1452.3c27.9-25.3,71-23.2,96.3,4.7c25.3,27.9,23.2,71-4.7,96.3c-27.9,25.3-71,23.2-96.3-4.7
					C769,1520.7,771.1,1477.6,799,1452.3z"/>
			</g>
		</g>
	</g>
</g>
</svg>
